<svg width="100%" height="100%" viewBox="0 0 774 403" fill="none" xmlns="http://www.w3.org/2000/svg">
<g clip-path="url(#clip0_36_212)">
<path d="M774 -73.8483H0V486.152H774V-73.8483Z" fill="#ABE3BB"/>
<path opacity="0.3" d="M729.9 348.652C730.3 348.652 727.2 327.652 727 326.652C723.8 313.052 718.3 299.752 710 288.552C682.7 251.952 630.8 256.452 591.8 239.852C564.4 228.152 539 209.652 524.6 183.552C488.8 118.752 443.6 65.7518 370.3 44.0518C331.1 32.4518 289.4 30.5518 248.9 36.2518C213.5 41.2518 178.5 52.2518 148.6 71.7518C97 105.452 62.2 170.552 74.4 233.152C88.6 306.352 151.6 348.652 151.6 348.652C151.6 348.652 729.2 348.652 729.9 348.652Z" fill="#0AA85C"/>
<path d="M709.8 328.252H293.5V319.552C293.5 314.352 297.7 310.152 302.9 310.152H700.6C705.7 310.152 709.8 314.252 709.8 319.352V328.252Z" fill="#0D234B"/>
<path d="M634 350.052C651.066 350.052 664.9 336.441 664.9 319.652C664.9 302.863 651.066 289.252 634 289.252C616.934 289.252 603.1 302.863 603.1 319.652C603.1 336.441 616.934 350.052 634 350.052Z" fill="#0D234B"/>
<path d="M439 350.052C456.066 350.052 469.9 336.441 469.9 319.652C469.9 302.862 456.066 289.252 439 289.252C421.935 289.252 408.1 302.862 408.1 319.652C408.1 336.441 421.935 350.052 439 350.052Z" fill="#0D234B"/>
<path d="M674.1 310.252H462.1V156.352H582.1C596 156.352 609 163.352 616.5 174.952L674.2 264.852V310.252H674.1Z" fill="#005D92"/>
<path d="M619.5 179.752H478.7V245.152H661.5L619.5 179.752Z" fill="#0D234B"/>
<path d="M507.5 171.452C501.4 162.052 490.8 156.352 479.4 156.352H329.3C314.6 156.352 302.7 168.052 302.7 182.552V310.252H568.4V264.852L507.5 171.452Z" fill="#00A0D6"/>
<path d="M370.2 262.452C370.2 262.452 325 223.552 312.6 162.052C306.5 166.852 302.6 174.252 302.6 182.552V263.152L370.2 262.452Z" fill="#0D234B"/>
<path d="M302.7 224.152V310.252H406.1C396 278.252 356.6 244.852 302.7 224.152Z" fill="#F06365"/>
<path d="M406.7 310.252C396.8 281.452 367.1 260.652 332 260.652C321.6 260.652 311.8 262.452 302.7 265.752V310.252H406.7Z" fill="#005D92"/>
<path d="M512.9 179.752H501.8C483.5 179.752 468.6 194.352 468.6 212.452C468.6 230.552 483.5 245.152 501.8 245.152H555.6L512.9 179.752Z" fill="#005D92"/>
<path d="M357.7 350.052C374.766 350.052 388.6 336.441 388.6 319.652C388.6 302.863 374.766 289.252 357.7 289.252C340.634 289.252 326.8 302.863 326.8 319.652C326.8 336.441 340.634 350.052 357.7 350.052Z" fill="#0D234B"/>
<path d="M357.7 330.852C363.941 330.852 369 325.838 369 319.652C369 313.466 363.941 308.452 357.7 308.452C351.459 308.452 346.4 313.466 346.4 319.652C346.4 325.838 351.459 330.852 357.7 330.852Z" fill="#005D92"/>
<path d="M608.9 310.252H551.1V245.152H578.6C595.4 245.152 609 258.752 609 275.552V310.252H608.9Z" fill="#00A0D6"/>
<path d="M531.5 350.052C548.566 350.052 562.4 336.441 562.4 319.652C562.4 302.862 548.566 289.252 531.5 289.252C514.434 289.252 500.6 302.862 500.6 319.652C500.6 336.441 514.434 350.052 531.5 350.052Z" fill="#0D234B"/>
<path d="M542.8 319.652C542.8 325.852 537.7 330.852 531.5 330.852C525.3 330.852 520.2 325.852 520.2 319.652C520.2 313.452 525.3 308.452 531.5 308.452C537.7 308.452 542.8 313.552 542.8 319.652Z" fill="#005D92"/>
<path d="M700.6 310.252H662L647.6 245.152H670C686.9 245.152 700.6 258.652 700.6 275.252V310.252Z" fill="#005D92"/>
<path d="M568.5 245.152L565.1 239.852L546.2 231.152C542.2 229.352 537.8 228.352 533.4 228.352C527.8 228.352 523.3 232.852 523.3 238.352V245.052H568.5V245.152Z" fill="#0D234B"/>
<path d="M612.3 291.352H605.3C600.7 291.352 597 287.652 597 283.052C597 278.452 600.7 274.752 605.3 274.752H612.3C616.9 274.752 620.6 278.452 620.6 283.052C620.6 287.652 616.9 291.352 612.3 291.352Z" fill="#8EDDF9"/>
<path d="M700.6 291.352H697.2C692.6 291.352 688.8 287.652 688.8 283.052C688.8 278.452 692.6 274.752 697.2 274.752H700.6V291.352Z" fill="#8EDDF9"/>
<path d="M79.1001 152.652C79.1001 134.052 94.2001 118.852 112.9 118.852C131.6 118.852 146.7 133.952 146.7 152.652H79.1001Z" fill="white"/>
<path d="M14 152.652C14 134.052 29.1 118.852 47.8 118.852C66.5 118.852 81.6 133.952 81.6 152.652H14Z" fill="white"/>
<path d="M654.4 135.752C654.4 117.152 669.5 101.952 688.2 101.952C706.9 101.952 722 117.052 722 135.752H654.4Z" fill="white"/>
<path d="M589.3 135.752C589.3 117.152 604.4 101.952 623.1 101.952C641.8 101.952 656.9 117.052 656.9 135.752H589.3Z" fill="white"/>
<path d="M298.5 94.3518C298.5 75.7518 313.6 60.5518 332.3 60.5518C351 60.5518 366.1 75.6518 366.1 94.3518H298.5Z" fill="white"/>
<path d="M109.8 278.752H90.8001C82.8001 278.752 77.8001 270.152 81.6001 263.152C85.5001 256.152 95.4001 255.852 99.7001 262.652L109.8 278.752Z" fill="#005E41"/>
<path d="M108.2 278.752H127.2C135.2 278.752 140.2 270.152 136.4 263.152C132.5 256.152 122.6 255.852 118.3 262.652L108.2 278.752Z" fill="#005E41"/>
<path d="M109.1 253.252L117.7 237.552C121.3 230.952 116.5 222.952 109 222.952C101.5 222.952 96.8 231.052 100.4 237.652L109.1 253.252Z" fill="#005E41"/>
<path d="M110 313.352L86.5001 313.252C76.6001 313.252 70.4001 302.652 75.2001 293.952C80.0001 285.352 92.3001 284.952 97.5001 293.352L110 313.352Z" fill="#005E41"/>
<path d="M108 313.352L131.5 313.252C141.4 313.252 147.6 302.652 142.8 293.952C138 285.352 125.7 284.952 120.5 293.352L108 313.352Z" fill="#005E41"/>
<path d="M110.1 350.252L83.7001 350.152C72.6001 350.152 65.6001 338.252 71.0001 328.452C76.4001 318.752 90.2001 318.352 96.1001 327.752L110.1 350.252Z" fill="#005E41"/>
<path d="M107.8 350.252L134.2 350.152C145.3 350.152 152.3 338.252 146.9 328.452C141.5 318.752 127.7 318.352 121.8 327.752L107.8 350.252Z" fill="#005E41"/>
<path d="M161.8 318.952H144.6C137.4 318.952 132.8 311.152 136.3 304.852C139.8 298.552 148.8 298.252 152.6 304.452L161.8 318.952Z" fill="#5EC584"/>
<path d="M160.3 318.952H177.5C184.7 318.952 189.3 311.152 185.8 304.852C182.3 298.552 173.3 298.252 169.5 304.452L160.3 318.952Z" fill="#5EC584"/>
<path d="M161.1 295.952L168.8 281.752C172 275.752 167.7 268.552 160.9 268.552C154.1 268.552 149.9 275.852 153.2 281.752L161.1 295.952Z" fill="#5EC584"/>
<path d="M161.9 350.252H140.6C131.7 350.252 126 340.652 130.4 332.852C134.7 325.052 145.9 324.752 150.6 332.252L161.9 350.252Z" fill="#5EC584"/>
<path d="M160.1 350.252H181.4C190.3 350.252 196 340.652 191.6 332.852C187.3 325.052 176.1 324.752 171.4 332.252L160.1 350.252Z" fill="#5EC584"/>
<path d="M161 282.252V348.852" stroke="#002F24" stroke-width="1.5" stroke-linecap="round" stroke-linejoin="round"/>
<path d="M110.2 239.652C110.2 238.952 109.6 238.452 109 238.452C108.4 238.452 107.8 239.052 107.8 239.652V307.352V349.952H110.3V239.652H110.2Z" fill="#002F24"/>
<path d="M240.4 350.152H160V196.152C160 188.252 166.4 181.852 174.3 181.852H226C233.9 181.852 240.3 188.252 240.3 196.152V350.152H240.4Z" fill="#0D234B"/>
<path d="M259.2 350.152H178.8V196.152C178.8 188.252 185.2 181.852 193.1 181.852H244.8C252.7 181.852 259.1 188.252 259.1 196.152V350.152H259.2Z" fill="#005D92"/>
<path d="M199.5 194.952H238.4C242.7 194.952 246.2 198.452 246.2 202.752V237.152H191.6V202.752C191.7 198.452 195.2 194.952 199.5 194.952Z" fill="#8EDDF9"/>
<path d="M244.8 244.552H193.1C192.4 244.552 191.9 243.952 191.9 243.352C191.9 242.752 192.5 242.152 193.1 242.152H244.8C245.5 242.152 246 242.752 246 243.352C246 243.952 245.5 244.552 244.8 244.552Z" fill="#0D234B"/>
<path d="M752.2 350.252H42.7C42 350.252 41.5 349.652 41.5 349.052C41.5 348.452 42.1 347.852 42.7 347.852H752.2C752.9 347.852 753.4 348.452 753.4 349.052C753.4 349.652 752.9 350.252 752.2 350.252Z" fill="#0D234B"/>
<path d="M314.6 293.352C312.3 291.352 310.9 288.452 310.9 285.252C310.9 279.352 315.7 274.552 321.6 274.552C327.5 274.552 332.3 279.352 332.3 285.252C332.3 291.152 327.5 295.952 321.6 295.952" stroke="#0D234B" stroke-width="2.5" stroke-miterlimit="10"/>
<path d="M321.6 292.252C325.466 292.252 328.6 289.118 328.6 285.252C328.6 281.386 325.466 278.252 321.6 278.252C317.734 278.252 314.6 281.386 314.6 285.252C314.6 289.118 317.734 292.252 321.6 292.252Z" fill="#ABE3BB"/>
<path d="M313 306.952C311.3 306.952 310 305.652 310 303.952V295.252C310 294.552 310.2 293.852 310.7 293.352L318.9 283.652C320 282.352 321.9 282.252 323.1 283.252C324.4 284.352 324.5 286.252 323.5 287.452L316 296.352V303.952C316 305.552 314.6 306.952 313 306.952Z" fill="#0D234B"/>
<path d="M316.4 302.252C314.2 302.252 312.4 300.452 312.4 298.252C312.4 296.052 314.2 294.252 316.4 294.252C318.6 294.252 320.4 296.052 320.4 298.252C320.4 300.452 318.6 302.252 316.4 302.252ZM316.4 296.652C315.6 296.652 314.9 297.352 314.9 298.152C314.9 298.952 315.6 299.652 316.4 299.652C317.2 299.652 317.9 298.952 317.9 298.152C317.9 297.352 317.2 296.652 316.4 296.652Z" fill="#0D234B"/>
<path d="M293.9 379.252C282.7 379.252 273.6 370.152 273.6 358.952V309.752C273.6 305.152 269.8 301.352 265.2 301.352H260.9C260.2 301.352 259.7 300.752 259.7 300.152C259.7 299.552 260.3 298.952 260.9 298.952H265.2C271.2 298.952 276.1 303.852 276.1 309.852V358.952C276.1 368.752 284.1 376.752 293.9 376.752C303.7 376.752 311.7 368.752 311.7 358.952V300.152C311.7 299.452 312.3 298.952 312.9 298.952C313.5 298.952 314.1 299.552 314.1 300.152V358.952C314.2 370.152 305.1 379.252 293.9 379.252Z" fill="#0D234B"/>
<path d="M212.3 309.052C203 309.052 197.2 299.052 201.7 290.952L212.5 271.752L223 291.052C227.4 299.252 221.5 309.052 212.3 309.052Z" fill="#ABE3BB"/>
<path d="M228.2 284.152C222.3 284.152 218.5 277.752 221.4 272.552L228.3 260.252L235 272.652C237.8 277.852 234.1 284.152 228.2 284.152Z" fill="#ABE3BB"/>
<path d="M258.8 308.652H252.8V290.452H258.8C261.9 290.452 264.3 292.952 264.3 295.952V303.152C264.3 306.152 261.8 308.652 258.8 308.652Z" fill="#005D92"/>
</g>
<defs>
<clipPath id="clip0_36_212">
<rect width="774" height="403" rx="16" fill="white"/>
</clipPath>
</defs>
</svg>
