<svg width="200" height="101" viewBox="0 0 200 101" fill="none" xmlns="http://www.w3.org/2000/svg">
<rect width="200" height="100" transform="translate(0 0.5)" fill="#081732"/>
<path d="M106 60.5H92C91.4696 60.5 90.9609 60.2893 90.5858 59.9142C90.2107 59.5391 90 59.0304 90 58.5V44.5M110 51.5L108.704 50.204C108.252 49.7521 107.639 49.4983 107 49.4983C106.361 49.4983 105.748 49.7521 105.296 50.204L99 56.5M102 46.5C102 47.6046 101.105 48.5 100 48.5C98.8954 48.5 98 47.6046 98 46.5C98 45.3954 98.8954 44.5 100 44.5C101.105 44.5 102 45.3954 102 46.5ZM96 40.5H108C109.105 40.5 110 41.3954 110 42.5V54.5C110 55.6046 109.105 56.5 108 56.5H96C94.8954 56.5 94 55.6046 94 54.5V42.5C94 41.3954 94.8954 40.5 96 40.5Z" stroke="#194086" stroke-width="2" stroke-linecap="round" stroke-linejoin="round"/>
</svg>
