<svg width="1000" height="560" viewBox="0 0 1000 560" fill="none" xmlns="http://www.w3.org/2000/svg">
<g clip-path="url(#clip0_19663_15397)">
<rect width="1000" height="560" fill="#8EDDF9"/>
<g opacity="0.5">
<path d="M802 561.6C801.3 561.6 800.8 561 800.8 560.4V418C800.8 412.9 796.7 408.8 791.6 408.8H699.5C698.8 408.8 698.3 408.2 698.3 407.6C698.3 407 698.9 406.4 699.5 406.4H791.6C798 406.4 803.3 411.6 803.3 418.1V560.4C803.2 561 802.7 561.6 802 561.6Z" fill="#F9F8F8"/>
<path d="M234.7 560.9C234 560.9 233.5 560.3 233.5 559.7V332.7H162.4C161.7 332.7 161.2 332.1 161.2 331.5C161.2 330.9 161.8 330.3 162.4 330.3H236V559.7C236 560.3 235.4 560.9 234.7 560.9Z" fill="#F9F8F8"/>
<path d="M149.8 560.9C149.1 560.9 148.6 560.3 148.6 559.7V331.5C148.6 330.8 149.2 330.3 149.8 330.3C150.4 330.3 151 330.9 151 331.5V559.6C151 560.3 150.5 560.9 149.8 560.9Z" fill="#F9F8F8"/>
<path d="M149.8 560.9C149.1 560.9 148.6 560.3 148.6 559.7V236.3H37.5V559.6C37.5 560.3 36.9 560.8 36.3 560.8C35.7 560.8 35 560.3 35 559.6V235C35 234.3 35.6 233.8 36.2 233.8H149.7C150.4 233.8 150.9 234.4 150.9 235V559.6C151 560.3 150.5 560.9 149.8 560.9Z" fill="#F9F8F8"/>
<path d="M149.8 267.8H36.5999C35.8999 267.8 35.3999 267.2 35.3999 266.6C35.3999 266 35.9999 265.4 36.5999 265.4H149.8C150.5 265.4 151 266 151 266.6C151 267.2 150.5 267.8 149.8 267.8Z" fill="#F9F8F8"/>
<path d="M149.8 300.3H36.5999C35.8999 300.3 35.3999 299.7 35.3999 299.1C35.3999 298.5 35.9999 297.9 36.5999 297.9H149.8C150.5 297.9 151 298.5 151 299.1C151 299.7 150.5 300.3 149.8 300.3Z" fill="#F9F8F8"/>
<path d="M149.8 332.7H36.5999C35.8999 332.7 35.3999 332.1 35.3999 331.5C35.3999 330.9 35.9999 330.3 36.5999 330.3H149.8C150.5 330.3 151 330.9 151 331.5C151 332.1 150.5 332.7 149.8 332.7Z" fill="#F9F8F8"/>
<path d="M149.8 365.2H36.5999C35.8999 365.2 35.3999 364.6 35.3999 364C35.3999 363.4 35.9999 362.8 36.5999 362.8H149.8C150.5 362.8 151 363.4 151 364C151 364.6 150.5 365.2 149.8 365.2Z" fill="#F9F8F8"/>
<path d="M149.8 397.6H36.5999C35.8999 397.6 35.3999 397 35.3999 396.4C35.3999 395.8 35.9999 395.2 36.5999 395.2H149.8C150.5 395.2 151 395.8 151 396.4C151 397 150.5 397.6 149.8 397.6Z" fill="#F9F8F8"/>
<path d="M149.8 430.1H36.2C35.5 430.1 35 429.5 35 428.9C35 428.3 35.6 427.7 36.2 427.7H149.7C150.4 427.7 150.9 428.3 150.9 428.9C150.9 429.5 150.5 430.1 149.8 430.1Z" fill="#F9F8F8"/>
<path d="M149.8 462.6H36.2C35.5 462.6 35 462 35 461.4C35 460.8 35.6 460.2 36.2 460.2H149.7C150.4 460.2 150.9 460.8 150.9 461.4C150.9 462 150.5 462.6 149.8 462.6Z" fill="#F9F8F8"/>
<path d="M149.8 495H36.2C35.5 495 35 494.4 35 493.8C35 493.2 35.6 492.6 36.2 492.6H149.7C150.4 492.6 150.9 493.2 150.9 493.8C150.9 494.4 150.5 495 149.8 495Z" fill="#F9F8F8"/>
<path d="M136.3 527.5H36.2C35.5 527.5 35 526.9 35 526.3C35 525.7 35.6 525.1 36.2 525.1H136.2C136.9 525.1 137.4 525.7 137.4 526.3C137.4 526.9 137 527.5 136.3 527.5Z" fill="#F9F8F8"/>
<path d="M308.7 561C308 561 307.5 560.4 307.5 559.8V341.3C307.5 336.3 305.1 331.6 301 328.7L245.6 289.1C243.7 287.8 241.4 287.6 239.3 288.6C237.2 289.7 236 291.7 236 294V559.7C236 560.4 235.4 560.9 234.8 560.9C234.2 560.9 233.6 560.3 233.6 559.7V294.1C233.6 290.9 235.4 288 238.3 286.5C241.2 285 244.6 285.3 247.2 287.2L302.6 326.8C307.3 330.2 310.1 335.7 310.1 341.5V560C310 560.5 309.4 561 308.7 561Z" fill="#F9F8F8"/>
<path d="M253.1 517.9C252.4 517.9 251.9 517.3 251.9 516.7V346.8C251.9 346.1 252.5 345.6 253.1 345.6C253.7 345.6 254.3 346.2 254.3 346.8V516.6C254.4 517.4 253.8 517.9 253.1 517.9Z" fill="#F9F8F8"/>
<path d="M271.7 523.9C271 523.9 270.5 523.3 270.5 522.7V359.4C270.5 358.7 271.1 358.2 271.7 358.2C272.3 358.2 272.9 358.8 272.9 359.4V522.6C273 523.4 272.4 523.9 271.7 523.9Z" fill="#F9F8F8"/>
<path d="M290.3 523.9C289.6 523.9 289.1 523.3 289.1 522.7V373C289.1 372.3 289.7 371.8 290.3 371.8C290.9 371.8 291.5 372.4 291.5 373V522.7C291.6 523.4 291 523.9 290.3 523.9Z" fill="#F9F8F8"/>
<path d="M474.3 561C473.6 561 473.1 560.4 473.1 559.8V290H367.8V559.7C367.8 560.4 367.2 560.9 366.6 560.9C366 560.9 365.4 560.3 365.4 559.7V288.7C365.4 288 366 287.5 366.6 287.5H474.4C475.1 287.5 475.6 288.1 475.6 288.7V559.7C475.6 560.5 475 561 474.3 561Z" fill="#F9F8F8"/>
<path d="M462.8 290H378.1V284.1C378.1 277.1 383.8 271.5 390.7 271.5H450.1C457.1 271.5 462.7 277.2 462.7 284.1V290H462.8ZM380.6 287.5H460.3V284.1C460.3 278.5 455.8 274 450.2 274H390.8C385.2 274 380.7 278.5 380.7 284.1V287.5H380.6Z" fill="#F9F8F8"/>
<path d="M461.5 561C460.8 561 460.3 560.4 460.3 559.8V321.9H380.6V559.8C380.6 560.5 380 561 379.4 561C378.8 561 378.2 560.4 378.2 559.8V320.6C378.2 319.9 378.8 319.4 379.4 319.4H461.6C462.3 319.4 462.8 320 462.8 320.6V559.8C462.8 560.5 462.2 561 461.5 561Z" fill="#F9F8F8"/>
<path d="M393 544.6C392.3 544.6 391.8 544 391.8 543.4V320.6C391.8 319.9 392.4 319.4 393 319.4C393.6 319.4 394.2 320 394.2 320.6V543.4C394.3 544.1 393.7 544.6 393 544.6Z" fill="#F9F8F8"/>
<path d="M406.7 561C406 561 405.5 560.4 405.5 559.8V320.6C405.5 319.9 406.1 319.4 406.7 319.4C407.3 319.4 407.9 320 407.9 320.6V559.8C408 560.5 407.4 561 406.7 561Z" fill="#F9F8F8"/>
<path d="M420.4 561C419.7 561 419.2 560.4 419.2 559.8V320.6C419.2 319.9 419.8 319.4 420.4 319.4C421 319.4 421.6 320 421.6 320.6V559.8C421.7 560.5 421.1 561 420.4 561Z" fill="#F9F8F8"/>
<path d="M434.1 561C433.4 561 432.9 560.4 432.9 559.8V320.6C432.9 319.9 433.5 319.4 434.1 319.4C434.7 319.4 435.3 320 435.3 320.6V559.8C435.4 560.5 434.8 561 434.1 561Z" fill="#F9F8F8"/>
<path d="M447.8 561C447.1 561 446.6 560.4 446.6 559.8V320.6C446.6 319.9 447.2 319.4 447.8 319.4C448.4 319.4 449 320 449 320.6V559.8C449.1 560.5 448.5 561 447.8 561Z" fill="#F9F8F8"/>
<path d="M529.1 561C528.4 561 527.9 560.4 527.9 559.8V416.8H490.9C490.2 416.8 489.7 416.2 489.7 415.6C489.7 415 490.3 414.4 490.9 414.4H530.4V559.9C530.3 560.5 529.8 561 529.1 561Z" fill="#F9F8F8"/>
<path d="M474.3 561C473.6 561 473.1 560.4 473.1 559.8V415.6C473.1 414.9 473.7 414.4 474.3 414.4C474.9 414.4 475.5 415 475.5 415.6V559.8C475.6 560.5 475 561 474.3 561Z" fill="#F9F8F8"/>
<path d="M366.5 561C365.8 561 365.3 560.4 365.3 559.8V445.5C365.3 444.8 365.9 444.3 366.5 444.3C367.1 444.3 367.7 444.9 367.7 445.5V559.7C367.8 560.5 367.2 561 366.5 561Z" fill="#F9F8F8"/>
<path d="M308.7 561C308 561 307.5 560.4 307.5 559.8V444.3H354.4C355.1 444.3 355.6 444.9 355.6 445.5C355.6 446.1 355 446.7 354.4 446.7H310V559.7C310 560.5 309.4 561 308.7 561Z" fill="#F9F8F8"/>
<path d="M455.8 274.1H386.1V267.2C386.1 260.4 391.6 254.9 398.4 254.9H443.6C450.4 254.9 455.9 260.4 455.9 267.2V274.1H455.8ZM388.6 271.6H453.3V267.2C453.3 261.8 448.9 257.4 443.5 257.4H398.3C392.9 257.4 388.5 261.8 388.5 267.2V271.6H388.6Z" fill="#F9F8F8"/>
<path d="M421 257.4C420.3 257.4 419.8 256.8 419.8 256.2V219.4C419.8 218.7 420.4 218.2 421 218.2C421.6 218.2 422.2 218.8 422.2 219.4V256.2C422.2 256.8 421.7 257.4 421 257.4Z" fill="#F9F8F8"/>
<path d="M421 213.6C420.3 213.6 419.8 213 419.8 212.4V212.2C419.8 211.5 420.4 211 421 211C421.6 211 422.2 211.6 422.2 212.2V212.4C422.2 213 421.7 213.6 421 213.6Z" fill="#F9F8F8"/>
<path d="M782.6 408.9H719.1C718.4 408.9 717.9 408.3 717.9 407.7V389C717.9 388.3 718.5 387.8 719.1 387.8H782.6C783.3 387.8 783.8 388.4 783.8 389V407.6C783.9 408.3 783.3 408.9 782.6 408.9ZM720.3 406.4H781.3V390.3H720.3V406.4Z" fill="#F9F8F8"/>
<path d="M774.7 390.3C774 390.3 773.5 389.7 773.5 389.1C773.5 376.6 763.4 366.5 750.9 366.5C738.4 366.5 728.3 376.6 728.3 389.1C728.3 389.8 727.7 390.3 727.1 390.3C726.5 390.3 725.9 389.7 725.9 389.1C725.9 375.2 737.2 364 751 364C764.8 364 776 375.2 776 389C776 389.7 775.4 390.3 774.7 390.3Z" fill="#F9F8F8"/>
<path d="M768 436.8H730.1C729.4 436.8 728.9 436.2 728.9 435.6C728.9 435 729.5 434.4 730.1 434.4H768C768.7 434.4 769.2 435 769.2 435.6C769.2 436.2 768.7 436.8 768 436.8Z" fill="#F9F8F8"/>
<path d="M773.7 459.4H730.2C729.5 459.4 729 458.8 729 458.2C729 457.6 729.6 457 730.2 457H773.7C774.4 457 774.9 457.6 774.9 458.2C774.9 458.8 774.4 459.4 773.7 459.4Z" fill="#F9F8F8"/>
<path d="M773.7 482H730.2C729.5 482 729 481.4 729 480.8C729 480.2 729.6 479.6 730.2 479.6H773.7C774.4 479.6 774.9 480.2 774.9 480.8C774.9 481.4 774.4 482 773.7 482Z" fill="#F9F8F8"/>
<path d="M529.1 561.6C528.4 561.6 527.9 561 527.9 560.4V374.5C527.9 368.1 533.1 362.8 539.6 362.8H629.8C630.5 362.8 631 363.4 631 364C631 364.6 630.4 365.2 629.8 365.2H539.6C534.6 365.2 530.4 369.3 530.4 374.4V560.2C530.3 561 529.8 561.6 529.1 561.6Z" fill="#F9F8F8"/>
<path d="M642.6 397.7H545.7C545 397.7 544.5 397.1 544.5 396.5C544.5 395.9 545.1 395.3 545.7 395.3H642.6C643.3 395.3 643.8 395.9 643.8 396.5C643.8 397.1 643.3 397.7 642.6 397.7Z" fill="#F9F8F8"/>
<path d="M642.6 430.2H545.7C545 430.2 544.5 429.6 544.5 429C544.5 428.4 545.1 427.8 545.7 427.8H642.6C643.3 427.8 643.8 428.4 643.8 429C643.8 429.6 643.3 430.2 642.6 430.2Z" fill="#F9F8F8"/>
<path d="M642.6 463.3H545.7C545 463.3 544.5 462.7 544.5 462.1C544.5 461.5 545.1 460.9 545.7 460.9H642.6C643.3 460.9 643.8 461.5 643.8 462.1C643.8 462.7 643.3 463.3 642.6 463.3Z" fill="#F9F8F8"/>
<path d="M642.6 495.7H545.7C545 495.7 544.5 495.1 544.5 494.5C544.5 493.9 545.1 493.3 545.7 493.3H642.6C643.3 493.3 643.8 493.9 643.8 494.5C643.8 495.1 643.3 495.7 642.6 495.7Z" fill="#F9F8F8"/>
<path d="M642.6 528.2H545.7C545 528.2 544.5 527.6 544.5 527C544.5 526.4 545.1 525.8 545.7 525.8H642.6C643.3 525.8 643.8 526.4 643.8 527C643.8 527.6 643.3 528.2 642.6 528.2Z" fill="#F9F8F8"/>
<path d="M509.4 561.1C508.7 561.1 508.2 560.5 508.2 559.9V536.2C508.2 531.8 505.2 528.2 501.4 528.2C497.7 528.2 494.6 531.8 494.6 536.2V558.9C494.6 559.6 494 560.1 493.4 560.1C492.8 560.1 492.2 559.5 492.2 558.9V536.2C492.2 530.4 496.4 525.7 501.5 525.7C506.6 525.7 510.8 530.4 510.8 536.2V559.9C510.7 560.5 510.1 561.1 509.4 561.1Z" fill="#F9F8F8"/>
<path d="M183.8 377.4H171.2C170.5 377.4 170 376.8 170 376.2V352.3C170 351.6 170.6 351.1 171.2 351.1H183.8C184.5 351.1 185 351.7 185 352.3V376.2C185 376.8 184.5 377.4 183.8 377.4ZM172.5 374.9H182.6V353.5H172.5V374.9Z" fill="#F9F8F8"/>
<path d="M213.3 377.4H200.7C200 377.4 199.5 376.8 199.5 376.2V352.3C199.5 351.6 200.1 351.1 200.7 351.1H213.3C214 351.1 214.5 351.7 214.5 352.3V376.2C214.5 376.8 214 377.4 213.3 377.4ZM202 374.9H212V353.5H202V374.9Z" fill="#F9F8F8"/>
<path d="M183.8 419.1H171.2C170.5 419.1 170 418.5 170 417.9V394C170 393.3 170.6 392.8 171.2 392.8H183.8C184.5 392.8 185 393.4 185 394V417.9C185 418.5 184.5 419.1 183.8 419.1ZM172.5 416.6H182.6V395.2H172.5V416.6Z" fill="#F9F8F8"/>
<path d="M213.3 419.1H200.7C200 419.1 199.5 418.5 199.5 417.9V394C199.5 393.3 200.1 392.8 200.7 392.8H213.3C214 392.8 214.5 393.4 214.5 394V417.9C214.5 418.5 214 419.1 213.3 419.1ZM202 416.6H212V395.2H202V416.6Z" fill="#F9F8F8"/>
<path d="M183.8 464.2H171.2C170.5 464.2 170 463.6 170 463V439C170 438.3 170.6 437.8 171.2 437.8H183.8C184.5 437.8 185 438.4 185 439V462.9C185 463.6 184.5 464.2 183.8 464.2ZM172.5 461.7H182.6V440.3H172.5V461.7Z" fill="#F9F8F8"/>
<path d="M213.3 464.2H200.7C200 464.2 199.5 463.6 199.5 463V439C199.5 438.3 200.1 437.8 200.7 437.8H213.3C214 437.8 214.5 438.4 214.5 439V462.9C214.5 463.6 214 464.2 213.3 464.2ZM202 461.7H212V440.3H202V461.7Z" fill="#F9F8F8"/>
<path d="M156.5 332.7H156.3C155.6 332.7 155.1 332.1 155.1 331.5C155.1 330.9 155.7 330.3 156.3 330.3H156.5C157.2 330.3 157.7 330.9 157.7 331.5C157.7 332.1 157.2 332.7 156.5 332.7Z" fill="#F9F8F8"/>
<path d="M360.2 446.8H360C359.3 446.8 358.8 446.2 358.8 445.6C358.8 445 359.4 444.4 360 444.4H360.2C360.9 444.4 361.4 445 361.4 445.6C361.4 446.2 360.9 446.8 360.2 446.8Z" fill="#F9F8F8"/>
<path d="M337.6 477.9C336.9 477.9 336.4 477.3 336.4 476.7V476.5C336.4 475.8 337 475.3 337.6 475.3C338.2 475.3 338.8 475.9 338.8 476.5V476.7C338.9 477.3 338.3 477.9 337.6 477.9Z" fill="#F9F8F8"/>
<path d="M337.6 495.2C336.9 495.2 336.4 494.6 336.4 494V493.8C336.4 493.1 337 492.6 337.6 492.6C338.2 492.6 338.8 493.2 338.8 493.8V494C338.9 494.7 338.3 495.2 337.6 495.2Z" fill="#F9F8F8"/>
<path d="M337.6 512.6C336.9 512.6 336.4 512 336.4 511.4V511.2C336.4 510.5 337 510 337.6 510C338.2 510 338.8 510.6 338.8 511.2V511.4C338.9 512 338.3 512.6 337.6 512.6Z" fill="#F9F8F8"/>
<path d="M60 231.4C59.3 231.4 58.8 230.8 58.8 230.2V230C58.8 229.3 59.4 228.8 60 228.8C60.6 228.8 61.2001 229.4 61.2001 230V230.2C61.2001 230.8 60.6 231.4 60 231.4Z" fill="#F9F8F8"/>
<path d="M253.2 523.9C252.5 523.9 252 523.3 252 522.7V522.5C252 521.8 252.6 521.3 253.2 521.3C253.8 521.3 254.4 521.9 254.4 522.5V522.7C254.5 523.4 253.9 523.9 253.2 523.9Z" fill="#F9F8F8"/>
<path d="M393 552.6C392.3 552.6 391.8 552 391.8 551.4V551.2C391.8 550.5 392.4 550 393 550C393.6 550 394.2 550.6 394.2 551.2V551.4C394.3 552 393.7 552.6 393 552.6Z" fill="#F9F8F8"/>
<path d="M773.7 436.8H773.5C772.8 436.8 772.3 436.2 772.3 435.6C772.3 435 772.9 434.4 773.5 434.4H773.7C774.4 434.4 774.9 435 774.9 435.6C774.9 436.2 774.4 436.8 773.7 436.8Z" fill="#F9F8F8"/>
<path d="M482.6 416.8H482.4C481.7 416.8 481.2 416.2 481.2 415.6C481.2 415 481.8 414.4 482.4 414.4H482.6C483.3 414.4 483.8 415 483.8 415.6C483.8 416.2 483.3 416.8 482.6 416.8Z" fill="#F9F8F8"/>
<path d="M635.3 365.3H635.1C634.4 365.3 633.9 364.7 633.9 364.1C633.9 363.5 634.5 362.9 635.1 362.9H635.3C636 362.9 636.5 363.5 636.5 364.1C636.5 364.7 636 365.3 635.3 365.3Z" fill="#F9F8F8"/>
<path d="M731.2 561.6C730.5 561.6 730 561 730 560.4C730 549.1 720.8 539.9 709.5 539.9C698.2 539.9 689 549.1 689 560.4C689 561.1 688.4 561.6 687.8 561.6C687.2 561.6 686.6 561 686.6 560.4C686.6 547.7 696.9 537.4 709.6 537.4C722.3 537.4 732.6 547.7 732.6 560.4C732.5 561 731.9 561.6 731.2 561.6Z" fill="#F9F8F8"/>
<path d="M701.5 339H640.2C637.1 339 634.6 336.5 634.6 333.4V284.3C634.6 281.2 637.1 278.7 640.2 278.7H701.5C704.6 278.7 707.1 281.2 707.1 284.3V299.2C707.1 299.9 706.5 300.4 705.9 300.4C705.3 300.4 704.7 299.8 704.7 299.2V284.3C704.7 282.6 703.3 281.2 701.6 281.2H640.3C638.6 281.2 637.2 282.6 637.2 284.3V333.4C637.2 335.1 638.6 336.5 640.3 336.5H701.6C703.3 336.5 704.7 335.1 704.7 333.4V310.8C704.7 310.1 705.3 309.6 705.9 309.6C706.5 309.6 707.1 310.2 707.1 310.8V333.4C707 336.5 704.5 339 701.5 339Z" fill="#F9F8F8"/>
<path d="M705.8 306.1C705.1 306.1 704.6 305.5 704.6 304.9V304.7C704.6 304 705.2 303.5 705.8 303.5C706.4 303.5 707 304.1 707 304.7V304.9C707 305.5 706.5 306.1 705.8 306.1Z" fill="#F9F8F8"/>
<path d="M642.3 561C641.6 561 641 560.4 641.1 559.7L641.5 337.7C641.5 337 642.1 336.5 642.7 336.5H699.6C699.9 336.5 700.3 336.6 700.5 336.9C700.7 337.1 700.9 337.5 700.9 337.8L700.5 541C700.5 541.7 699.9 542.3 699.2 542.2C698.5 542.2 698 541.6 698 540.9L698.3 339H643.9L643.6 559.7C643.6 560.5 643 561 642.3 561Z" fill="#F9F8F8"/>
<path d="M698.2 281.3H643.4C642.7 281.3 642.2 280.7 642.2 280.1V255C642.2 254.3 642.8 253.8 643.4 253.8H698.2C698.9 253.8 699.4 254.4 699.4 255V280C699.5 280.7 698.9 281.3 698.2 281.3ZM644.7 278.8H697V256.2H644.7V278.8Z" fill="#F9F8F8"/>
<path d="M698.2 256.2H643.4C642.9 256.2 642.5 255.9 642.3 255.5C642.1 255.1 642.1 254.6 642.4 254.2L655.8 236.7C656 236.4 656.4 236.2 656.8 236.2H684.8C685.2 236.2 685.6 236.4 685.8 236.7L699.2 254.2C699.5 254.6 699.5 255.1 699.3 255.5C699.1 255.9 698.7 256.2 698.2 256.2ZM646 253.7H695.7L684.2 238.7H657.4L646 253.7Z" fill="#F9F8F8"/>
<path d="M684.8 238.7H656.8C656.1 238.7 655.6 238.1 655.6 237.5V215.7C655.6 215 656.2 214.5 656.8 214.5H684.8C685.5 214.5 686 215.1 686 215.7V237.5C686.1 238.1 685.5 238.7 684.8 238.7ZM658.1 236.2H683.6V216.9H658.1V236.2Z" fill="#F9F8F8"/>
<path d="M684.8 216.9H656.8C656.4 216.9 656 216.7 655.8 216.4C655.6 216.1 655.5 215.6 655.7 215.3L669.7 177.9C669.9 177.4 670.3 177.1 670.9 177.1C671.4 177.1 671.9 177.4 672.1 177.9L686.2 215.3C686.3 215.7 686.3 216.1 686.1 216.5C685.6 216.7 685.3 216.9 684.8 216.9ZM658.6 214.4H683L670.8 181.8L658.6 214.4Z" fill="#F9F8F8"/>
<path d="M670.8 183C670.1 183 669.6 182.4 669.6 181.8V154.3C669.6 153.6 670.2 153.1 670.8 153.1C671.4 153.1 672 153.7 672 154.3V181.7C672.1 182.4 671.5 183 670.8 183Z" fill="#F9F8F8"/>
<path d="M699.6 395.2H642.7V397.7H699.6V395.2Z" fill="#F9F8F8"/>
<path d="M699.6 450.9H642.7V453.4H699.6V450.9Z" fill="#F9F8F8"/>
<path d="M670.8 328.7C659.7 328.7 650.7 319.7 650.7 308.6C650.7 297.5 659.7 288.5 670.8 288.5C681.9 288.5 690.9 297.5 690.9 308.6C690.9 319.7 681.8 328.7 670.8 328.7ZM670.8 291C661.1 291 653.2 298.9 653.2 308.6C653.2 318.3 661.1 326.2 670.8 326.2C680.5 326.2 688.4 318.3 688.4 308.6C688.4 298.9 680.5 291 670.8 291Z" fill="#F9F8F8"/>
<path d="M666.6 238.7C665.9 238.7 665.4 238.1 665.4 237.5V227.4C665.4 226.7 666 226.2 666.6 226.2C667.2 226.2 667.8 226.8 667.8 227.4V237.5C667.8 238.1 667.3 238.7 666.6 238.7Z" fill="#F9F8F8"/>
<path d="M675.1 238.7C674.4 238.7 673.9 238.1 673.9 237.5V227.4C673.9 226.7 674.5 226.2 675.1 226.2C675.7 226.2 676.3 226.8 676.3 227.4V237.5C676.3 238.1 675.8 238.7 675.1 238.7Z" fill="#F9F8F8"/>
<path d="M670.8 280.6C670.1 280.6 669.6 280 669.6 279.4V269C669.6 268.3 670.2 267.8 670.8 267.8C671.4 267.8 672 268.4 672 269V279.4C672.1 280.1 671.5 280.6 670.8 280.6Z" fill="#F9F8F8"/>
<path d="M685.3 280.6C684.6 280.6 684.1 280 684.1 279.4V269C684.1 268.3 684.7 267.8 685.3 267.8C685.9 267.8 686.5 268.4 686.5 269V279.4C686.6 280.1 686 280.6 685.3 280.6Z" fill="#F9F8F8"/>
<path d="M656.3 280.6C655.6 280.6 655.1 280 655.1 279.4V269C655.1 268.3 655.7 267.8 656.3 267.8C656.9 267.8 657.5 268.4 657.5 269V279.4C657.6 280.1 657 280.6 656.3 280.6Z" fill="#F9F8F8"/>
<path d="M678.9 309.9H669.6V298.4C669.6 297.7 670.2 297.2 670.8 297.2C671.4 297.2 672 297.8 672 298.4V307.4H678.8C679.5 307.4 680 308 680 308.6C680 309.2 679.6 309.9 678.9 309.9Z" fill="#F9F8F8"/>
<path d="M670.8 528.2C670.1 528.2 669.6 527.6 669.6 527V348.8C669.6 348.1 670.2 347.6 670.8 347.6C671.4 347.6 672 348.2 672 348.8V526.9C672.1 527.6 671.5 528.2 670.8 528.2Z" fill="#F9F8F8"/>
<path d="M685.3 528.2C684.6 528.2 684.1 527.6 684.1 527V348.8C684.1 348.1 684.7 347.6 685.3 347.6C685.9 347.6 686.5 348.2 686.5 348.8V526.9C686.6 527.6 686 528.2 685.3 528.2Z" fill="#F9F8F8"/>
<path d="M656.3 528.2C655.6 528.2 655.1 527.6 655.1 527V348.8C655.1 348.1 655.7 347.6 656.3 347.6C656.9 347.6 657.5 348.2 657.5 348.8V526.9C657.6 527.6 657 528.2 656.3 528.2Z" fill="#F9F8F8"/>
<path d="M803.2 426.4C802.5 426.4 802 425.8 802 425.2C802 424.6 802.6 424 803.2 424C836 424 861.3 415 878.3 397.2C878.8 396.7 879.6 396.7 880.1 397.2C880.6 397.7 880.6 398.5 880.1 399C862.6 417.1 836.7 426.4 803.2 426.4Z" fill="#F9F8F8"/>
<path d="M879.5 540.7H803.2C802.5 540.7 802 540.1 802 539.5C802 538.9 802.6 538.3 803.2 538.3H879.5C880.2 538.3 880.7 538.9 880.7 539.5C880.7 540.1 880.2 540.7 879.5 540.7Z" fill="#F9F8F8"/>
<path d="M859.9 529.1C859.2 529.1 858.7 528.5 858.7 527.9V412.6C858.7 411.9 859.3 411.4 859.9 411.4C860.5 411.4 861.1 412 861.1 412.6V527.8C861.1 528.5 860.5 529.1 859.9 529.1Z" fill="#F9F8F8"/>
<path d="M841.5 529.1C840.8 529.1 840.3 528.5 840.3 527.9V420.1C840.3 419.4 840.9 418.9 841.5 418.9C842.1 418.9 842.7 419.5 842.7 420.1V527.8C842.7 528.5 842.2 529.1 841.5 529.1Z" fill="#F9F8F8"/>
<path d="M823.1 529.1C822.4 529.1 821.9 528.5 821.9 527.9V424.6C821.9 423.9 822.5 423.4 823.1 423.4C823.7 423.4 824.3 424 824.3 424.6V527.9C824.4 528.5 823.8 529.1 823.1 529.1Z" fill="#F9F8F8"/>
<path d="M944.2 392C943.5 392 943 391.4 943 390.8V376.5C943 375.8 943.6 375.3 944.2 375.3C944.8 375.3 945.4 375.9 945.4 376.5V390.8C945.4 391.5 944.9 392 944.2 392Z" fill="#F9F8F8"/>
<path d="M904.1 392C903.4 392 902.9 391.4 902.9 390.8V376.5C902.9 375.8 903.5 375.3 904.1 375.3C904.7 375.3 905.3 375.9 905.3 376.5V390.8C905.4 391.5 904.8 392 904.1 392Z" fill="#F9F8F8"/>
<path d="M924.2 391.4C923.5 391.4 923 390.8 923 390.2V375.9C923 375.2 923.6 374.7 924.2 374.7C924.8 374.7 925.4 375.3 925.4 375.9V390.2C925.5 390.9 924.9 391.4 924.2 391.4Z" fill="#F9F8F8"/>
<path d="M944.2 434.1C943.5 434.1 943 433.5 943 432.9V418.6C943 417.9 943.6 417.4 944.2 417.4C944.8 417.4 945.4 418 945.4 418.6V432.9C945.5 433.5 944.9 434.1 944.2 434.1Z" fill="#F9F8F8"/>
<path d="M904.2 434.1C903.5 434.1 903 433.5 903 432.9V418.6C903 417.9 903.6 417.4 904.2 417.4C904.8 417.4 905.4 418 905.4 418.6V432.9C905.4 433.5 904.9 434.1 904.2 434.1Z" fill="#F9F8F8"/>
<path d="M924.2 434.1C923.5 434.1 923 433.5 923 432.9V418.6C923 417.9 923.6 417.4 924.2 417.4C924.8 417.4 925.4 418 925.4 418.6V432.9C925.4 433.5 924.9 434.1 924.2 434.1Z" fill="#F9F8F8"/>
<path d="M944.2 477.7C943.5 477.7 943 477.1 943 476.5V462.2C943 461.5 943.6 461 944.2 461C944.8 461 945.4 461.6 945.4 462.2V476.5C945.5 477.2 944.9 477.7 944.2 477.7Z" fill="#F9F8F8"/>
<path d="M904.2 477.7C903.5 477.7 903 477.1 903 476.5V462.2C903 461.5 903.6 461 904.2 461C904.8 461 905.4 461.6 905.4 462.2V476.5C905.4 477.2 904.9 477.7 904.2 477.7Z" fill="#F9F8F8"/>
<path d="M924.2 477.7C923.5 477.7 923 477.1 923 476.5V462.2C923 461.5 923.6 461 924.2 461C924.8 461 925.4 461.6 925.4 462.2V476.5C925.4 477.2 924.9 477.7 924.2 477.7Z" fill="#F9F8F8"/>
<path d="M944.2 526.2C943.5 526.2 943 525.6 943 525V510.7C943 510 943.6 509.5 944.2 509.5C944.8 509.5 945.4 510.1 945.4 510.7V525C945.5 525.7 944.9 526.2 944.2 526.2Z" fill="#F9F8F8"/>
<path d="M904.2 526.2C903.5 526.2 903 525.6 903 525V510.7C903 510 903.6 509.5 904.2 509.5C904.8 509.5 905.4 510.1 905.4 510.7V525C905.4 525.7 904.9 526.2 904.2 526.2Z" fill="#F9F8F8"/>
<path d="M924.2 526.2C923.5 526.2 923 525.6 923 525V510.7C923 510 923.6 509.5 924.2 509.5C924.8 509.5 925.4 510.1 925.4 510.7V525C925.4 525.7 924.9 526.2 924.2 526.2Z" fill="#F9F8F8"/>
<path d="M968.9 561.6C968.2 561.6 967.7 561 967.7 560.4V540.8H880.9V560.4C880.9 561.1 880.3 561.6 879.7 561.6C879.1 561.6 878.5 561 878.5 560.4V539.5C878.5 538.8 879.1 538.3 879.7 538.3H969C969.7 538.3 970.2 538.9 970.2 539.5V560.4C970.1 561 969.6 561.6 968.9 561.6Z" fill="#F9F8F8"/>
<path d="M968.9 540.7H879.6C878.9 540.7 878.4 540.1 878.4 539.5V367C878.4 366.3 879 365.8 879.6 365.8H968.9C969.6 365.8 970.1 366.4 970.1 367V539.5C970.1 540.1 969.6 540.7 968.9 540.7ZM880.8 538.2H967.6V368.2H880.8V538.2Z" fill="#F9F8F8"/>
<path d="M968.8 400.4H957.5C956.8 400.4 956.3 399.8 956.3 399.2V367C956.3 366.3 956.9 365.8 957.5 365.8H968.8C969.5 365.8 970 366.4 970 367V399.2C970 399.8 969.5 400.4 968.8 400.4ZM958.7 397.9H967.5V368.2H958.7V397.9Z" fill="#F9F8F8"/>
<path d="M968.8 443.9H957.5C956.8 443.9 956.3 443.3 956.3 442.7V408.9C956.3 408.2 956.9 407.7 957.5 407.7H968.8C969.5 407.7 970 408.3 970 408.9V442.7C970 443.3 969.5 443.9 968.8 443.9ZM958.7 441.4H967.5V410.1H958.7V441.4Z" fill="#F9F8F8"/>
<path d="M968.8 487.3H957.5C956.8 487.3 956.3 486.7 956.3 486.1V452.3C956.3 451.6 956.9 451.1 957.5 451.1H968.8C969.5 451.1 970 451.7 970 452.3V486.1C970 486.8 969.5 487.3 968.8 487.3ZM958.7 484.8H967.5V453.5H958.7V484.8Z" fill="#F9F8F8"/>
<path d="M968.8 540.7H957.5C956.8 540.7 956.3 540.1 956.3 539.5V495.8C956.3 495.1 956.9 494.6 957.5 494.6H968.8C969.5 494.6 970 495.2 970 495.8V539.5C970 540.1 969.5 540.7 968.8 540.7ZM958.7 538.2H967.5V497H958.7V538.2Z" fill="#F9F8F8"/>
<path d="M890.9 400.4H879.6C878.9 400.4 878.4 399.8 878.4 399.2V367C878.4 366.3 879 365.8 879.6 365.8H890.9C891.6 365.8 892.1 366.4 892.1 367V399.2C892.1 399.8 891.6 400.4 890.9 400.4ZM880.8 397.9H889.6V368.2H880.8V397.9Z" fill="#F9F8F8"/>
<path d="M890.9 443.9H879.6C878.9 443.9 878.4 443.3 878.4 442.7V408.9C878.4 408.2 879 407.7 879.6 407.7H890.9C891.6 407.7 892.1 408.3 892.1 408.9V442.7C892.1 443.3 891.6 443.9 890.9 443.9ZM880.8 441.4H889.6V410.1H880.8V441.4Z" fill="#F9F8F8"/>
<path d="M890.9 487.3H879.6C878.9 487.3 878.4 486.7 878.4 486.1V452.3C878.4 451.6 879 451.1 879.6 451.1H890.9C891.6 451.1 892.1 451.7 892.1 452.3V486.1C892.1 486.8 891.6 487.3 890.9 487.3ZM880.8 484.8H889.6V453.5H880.8V484.8Z" fill="#F9F8F8"/>
<path d="M890.9 540.7H879.6C878.9 540.7 878.4 540.1 878.4 539.5V495.8C878.4 495.1 879 494.6 879.6 494.6H890.9C891.6 494.6 892.1 495.2 892.1 495.8V539.5C892.1 540.1 891.6 540.7 890.9 540.7ZM880.8 538.2H889.6V497H880.8V538.2Z" fill="#F9F8F8"/>
<path d="M968.9 410.1H879.6C878.9 410.1 878.4 409.5 878.4 408.9V399.2C878.4 398.5 879 398 879.6 398H968.9C969.6 398 970.1 398.6 970.1 399.2V408.9C970.1 409.5 969.6 410.1 968.9 410.1ZM880.8 407.6H967.6V400.4H880.8V407.6Z" fill="#F9F8F8"/>
<path d="M968.9 453.6H879.6C878.9 453.6 878.4 453 878.4 452.4V442.7C878.4 442 879 441.5 879.6 441.5H968.9C969.6 441.5 970.1 442.1 970.1 442.7V452.4C970.1 453 969.6 453.6 968.9 453.6ZM880.8 451.1H967.6V443.9H880.8V451.1Z" fill="#F9F8F8"/>
<path d="M968.9 497H879.6C878.9 497 878.4 496.4 878.4 495.8V486.1C878.4 485.4 879 484.9 879.6 484.9H968.9C969.6 484.9 970.1 485.5 970.1 486.1V495.8C970.1 496.5 969.6 497 968.9 497ZM880.8 494.5H967.6V487.3H880.8V494.5Z" fill="#F9F8F8"/>
<path d="M890.2 350.4C890 350.4 889.8 350.3 889.6 350.2C889 349.8 888.8 349.1 889.2 348.5L922.3 293C922.5 292.6 922.9 292.4 923.4 292.4C923.8 292.4 924.2 292.6 924.5 293L958.6 348C959 348.6 958.8 349.4 958.2 349.7C957.6 350.1 956.8 349.9 956.5 349.3L923.3 296L891.2 349.8C891 350.2 890.6 350.4 890.2 350.4Z" fill="#F9F8F8"/>
<path d="M968.8 368.2H957.5C956.8 368.2 956.3 367.6 956.3 367V351.1C956.3 350.4 956.9 349.9 957.5 349.9H968.8C969.5 349.9 970 350.5 970 351.1V367C970 367.7 969.5 368.2 968.8 368.2ZM958.7 365.7H967.5V352.3H958.7V365.7Z" fill="#F9F8F8"/>
<path d="M968.8 352.4H957.5C957.1 352.4 956.7 352.2 956.5 351.9C956.3 351.6 956.2 351.1 956.3 350.8L962 334.4C962.2 333.9 962.6 333.6 963.2 333.6C963.8 333.6 964.2 333.9 964.4 334.4L970.1 350.8C970.2 351.2 970.2 351.6 969.9 351.9C969.6 352.2 969.2 352.4 968.8 352.4ZM959.2 349.9H967L963.1 338.5L959.2 349.9Z" fill="#F9F8F8"/>
<path d="M938.6 368.2H909.7C909 368.2 908.5 367.6 908.5 367V351.3C908.5 350.9 908.7 350.6 908.9 350.3L923.3 338.1C923.8 337.7 924.4 337.7 924.9 338.1L939.3 350.3C939.6 350.5 939.7 350.9 939.7 351.3V367C939.9 367.7 939.3 368.2 938.6 368.2ZM911 365.7H937.4V351.8L924.2 340.7L911 351.8V365.7Z" fill="#F9F8F8"/>
<path d="M968.8 352.4H957.5C957.1 352.4 956.7 352.2 956.5 351.9C956.3 351.6 956.2 351.1 956.3 350.8L962 334.4C962.2 333.9 962.6 333.6 963.2 333.6C963.8 333.6 964.2 333.9 964.4 334.4L970.1 350.8C970.2 351.2 970.2 351.6 969.9 351.9C969.6 352.2 969.2 352.4 968.8 352.4ZM959.2 349.9H967L963.1 338.5L959.2 349.9Z" fill="#F9F8F8"/>
<path d="M890.9 368.2H879.6C878.9 368.2 878.4 367.6 878.4 367V351.1C878.4 350.4 879 349.9 879.6 349.9H890.9C891.6 349.9 892.1 350.5 892.1 351.1V367C892.1 367.7 891.6 368.2 890.9 368.2ZM880.8 365.7H889.6V352.3H880.8V365.7Z" fill="#F9F8F8"/>
<path d="M890.9 352.4H879.6C879.2 352.4 878.8 352.2 878.6 351.9C878.4 351.6 878.3 351.1 878.4 350.8L884.1 334.4C884.3 333.9 884.7 333.6 885.3 333.6C885.9 333.6 886.3 333.9 886.5 334.4L892.2 350.8C892.3 351.2 892.3 351.6 892 351.9C891.7 352.2 891.3 352.4 890.9 352.4ZM881.3 349.9H889.1L885.2 338.5L881.3 349.9Z" fill="#F9F8F8"/>
<path d="M928.8 368.2C928.1 368.2 927.6 367.6 927.6 367V357.4C927.6 356.7 928.2 356.2 928.8 356.2C929.4 356.2 930 356.8 930 357.4V367C930.1 367.7 929.5 368.2 928.8 368.2Z" fill="#F9F8F8"/>
<path d="M919.5 368.2C918.8 368.2 918.3 367.6 918.3 367V357.4C918.3 356.7 918.9 356.2 919.5 356.2C920.1 356.2 920.7 356.8 920.7 357.4V367C920.8 367.7 920.2 368.2 919.5 368.2Z" fill="#F9F8F8"/>
<path d="M923.3 294.9C922.6 294.9 922.1 294.3 922.1 293.7V272.9C922.1 272.2 922.7 271.7 923.3 271.7C923.9 271.7 924.5 272.3 924.5 272.9V293.7C924.6 294.3 924 294.9 923.3 294.9Z" fill="#F9F8F8"/>
<path d="M923.3 269C922.6 269 922.1 268.5 922.1 267.8V267.7C922.1 267 922.7 266.5 923.3 266.5C923.9 266.5 924.5 267.1 924.5 267.7C924.5 268.3 924 269 923.3 269Z" fill="#F9F8F8"/>
<path d="M841.5 534.1C840.8 534.1 840.3 533.5 840.3 532.9V532.7C840.3 532 840.9 531.5 841.5 531.5C842.1 531.5 842.7 532.1 842.7 532.7V532.9C842.7 533.6 842.2 534.1 841.5 534.1Z" fill="#F9F8F8"/>
<path d="M859.9 534.2C859.2 534.2 858.7 533.6 858.7 533V532.8C858.7 532.1 859.3 531.6 859.9 531.6C860.5 531.6 861.1 532.2 861.1 532.8V533C861.1 533.7 860.5 534.2 859.9 534.2Z" fill="#F9F8F8"/>
<path d="M823.1 534.1C822.4 534.1 821.9 533.5 821.9 532.9V532.7C821.9 532 822.5 531.5 823.1 531.5C823.7 531.5 824.3 532.1 824.3 532.7V532.9C824.4 533.5 823.8 534.1 823.1 534.1Z" fill="#F9F8F8"/>
<path d="M143.1 527.5H143C142.3 527.5 141.8 526.9 141.8 526.3C141.8 525.7 142.4 525.1 143 525.1H143.2C143.9 525.1 144.4 525.7 144.4 526.3C144.4 526.9 143.8 527.5 143.1 527.5Z" fill="#F9F8F8"/>
<path d="M127.8 235.9C127.1 235.9 126.6 235.3 126.6 234.7C126.6 216.5 111.8 201.8 93.7001 201.8C79.1001 201.8 66.4001 211.2 62.2001 225.1C62.0001 225.8 61.3001 226.1 60.6001 225.9C59.9001 225.7 59.6001 225 59.8001 224.3C64.4001 209.3 78.0001 199.2 93.7001 199.2C113.2 199.2 129.1 215.1 129.1 234.6C129.1 235.3 128.5 235.9 127.8 235.9Z" fill="#F9F8F8"/>
</g>
<path d="M564.1 135C564.1 120.8 575.6 109.3 589.8 109.3C604 109.3 615.5 120.8 615.5 135H564.1Z" fill="white"/>
<path d="M514.5 135C514.5 120.8 526 109.3 540.2 109.3C554.4 109.3 565.9 120.8 565.9 135H514.5Z" fill="white"/>
<path d="M784 283.7C784 269.5 795.5 258 809.7 258C823.9 258 835.4 269.5 835.4 283.7H784Z" fill="white"/>
<path d="M592.4 330.5L572.8 347.8L558.2 347.9L562.3 328.5L592.4 330.5Z" fill="#99290A"/>
<path d="M477.6 545.5L502.3 484.8C502.3 484.8 533.1 462.9 547.2 434.7L456.6 435L413.4 545.4H477.6V545.5Z" fill="#99290A"/>
<path d="M585.5 396.5L566.9 414.3L566 394L585.5 396.5Z" fill="#99290A"/>
<path d="M593.4 365.9L573.7 380.4L560.2 379.3L565.5 361.6L593.4 365.9Z" fill="#99290A"/>
<path d="M542.3 277.2L580.2 246.7C585.9 242.2 594.1 243.2 598.5 248.9C602.4 254 602 261.2 597.5 265.8L542.2 322.4V277.2H542.3Z" fill="#99290A"/>
<path d="M566.9 257.5L574 251.8L570 294.1L566.9 297.3V257.5Z" fill="#500715"/>
<path d="M568.8 234.7V223C568.8 215.8 563.1 209.9 556.1 209.9H458.4C451.4 209.9 445.7 215.8 445.7 223V234.7H568.8Z" fill="black"/>
<path d="M445.7 414.7V428.5C445.7 435.7 451.4 441.6 458.4 441.6H556.1C563.1 441.6 568.8 435.7 568.8 428.5V414.7H445.7Z" fill="black"/>
<path d="M445.794 414.691L568.794 414.691L568.794 234.691L445.794 234.691L445.794 414.691Z" fill="white"/>
<path d="M555.3 405.4H460.2C457.6 405.4 455.5 403.3 455.5 400.7V249.3C455.5 246.7 457.6 244.6 460.2 244.6H555.3C557.9 244.6 560 246.7 560 249.3V400.7C560 403.3 557.9 405.4 555.3 405.4Z" fill="#E8F9EF"/>
<path d="M486.5 294.9C486.5 288.8 491.5 283.8 497.6 283.8C503.7 283.8 508.7 288.8 508.7 294.9H486.5Z" fill="white"/>
<path d="M465.1 294.9C465.1 288.8 470.1 283.8 476.2 283.8C482.3 283.8 487.3 288.8 487.3 294.9H465.1Z" fill="white"/>
<path d="M529.4 376H485.4C484.3 376 483.4 375.1 483.4 374V339C483.4 337.9 484.3 337 485.4 337H529.4C530.5 337 531.4 337.9 531.4 339V374C531.5 375.1 530.6 376 529.4 376Z" fill="#5EC584"/>
<path d="M524.6 370.8H490.2C489.3 370.8 488.6 370.1 488.6 369.2V343.9C488.6 343 489.3 342.3 490.2 342.3H524.6C525.5 342.3 526.2 343 526.2 343.9V369.2C526.3 370.1 525.5 370.8 524.6 370.8Z" fill="#005E41"/>
<path d="M507.4 368.2C513.862 368.2 519.1 362.962 519.1 356.5C519.1 350.038 513.862 344.8 507.4 344.8C500.938 344.8 495.7 350.038 495.7 356.5C495.7 362.962 500.938 368.2 507.4 368.2Z" fill="#EEEEEE"/>
<path d="M511.3 358.4H507.7C506.8 358.4 506.1 357.7 506.1 356.8V351.7C506.1 351 506.7 350.4 507.4 350.4C508.1 350.4 508.7 351 508.7 351.7V355.8H511.3C512 355.8 512.6 356.4 512.6 357.1C512.6 357.8 512.1 358.4 511.3 358.4Z" fill="#F06365"/>
<path d="M526.3 374.7H488.6V405.4H526.3V374.7Z" fill="#5EC584"/>
<path d="M526.3 325.3H488.6V338.3H526.3V325.3Z" fill="#5EC584"/>
<path d="M526.3 381.2V376H488.6" fill="#002F24"/>
<path d="M518.5 311H496.4L488.6 325.3H526.3L518.5 311Z" fill="#005E41"/>
<path d="M518.5 300.6H496.4V311H518.5V300.6Z" fill="#5EC584"/>
<path d="M506.8 274.6H508.1L518.5 300.6H496.4L506.8 274.6Z" fill="#005E41"/>
<g opacity="0.5">
<path opacity="0.5" d="M497.7 337H493.8V331.2C493.8 330.1 494.7 329.3 495.7 329.3C496.8 329.3 497.6 330.2 497.6 331.2V337H497.7Z" fill="#ABE3BB"/>
</g>
<g opacity="0.5">
<path opacity="0.5" d="M505.5 337H501.6V331.2C501.6 330.1 502.5 329.3 503.5 329.3C504.6 329.3 505.4 330.2 505.4 331.2V337H505.5Z" fill="#ABE3BB"/>
</g>
<g opacity="0.5">
<path opacity="0.5" d="M513.3 337H509.4V331.2C509.4 330.1 510.3 329.3 511.3 329.3C512.4 329.3 513.2 330.2 513.2 331.2V337H513.3Z" fill="#ABE3BB"/>
</g>
<g opacity="0.5">
<path opacity="0.5" d="M521.1 337H517.2V331.2C517.2 330.1 518.1 329.3 519.1 329.3C520.2 329.3 521 330.2 521 331.2V337H521.1Z" fill="#ABE3BB"/>
</g>
<g opacity="0.5">
<path opacity="0.5" d="M505.5 311H501.6V305.2C501.6 304.1 502.5 303.3 503.5 303.3C504.6 303.3 505.4 304.2 505.4 305.2V311H505.5Z" fill="#ABE3BB"/>
</g>
<g opacity="0.5">
<path opacity="0.5" d="M513.3 311H509.4V305.2C509.4 304.1 510.3 303.3 511.3 303.3C512.4 303.3 513.2 304.2 513.2 305.2V311H513.3Z" fill="#ABE3BB"/>
</g>
<g opacity="0.5">
<path opacity="0.5" d="M497.7 405.4H493.8V387C493.8 385.9 494.7 385.1 495.7 385.1C496.8 385.1 497.6 386 497.6 387V405.4H497.7Z" fill="#ABE3BB"/>
</g>
<g opacity="0.5">
<path opacity="0.5" d="M505.5 405.4H501.6V387C501.6 385.9 502.5 385.1 503.5 385.1C504.6 385.1 505.4 386 505.4 387V405.4H505.5Z" fill="#ABE3BB"/>
</g>
<g opacity="0.5">
<path opacity="0.5" d="M513.3 405.4H509.4V387C509.4 385.9 510.3 385.1 511.3 385.1C512.4 385.1 513.2 386 513.2 387V405.4H513.3Z" fill="#ABE3BB"/>
</g>
<g opacity="0.5">
<path opacity="0.5" d="M521.1 405.4H517.2V387C517.2 385.9 518.1 385.1 519.1 385.1C520.2 385.1 521 386 521 387V405.4H521.1Z" fill="#ABE3BB"/>
</g>
<path d="M507.4 283.7C506.7 283.7 506.2 283.1 506.2 282.5V259.4C506.2 258.7 506.8 258.2 507.4 258.2C508 258.2 508.6 258.8 508.6 259.4V282.5C508.7 283.1 508.1 283.7 507.4 283.7Z" fill="#005E41"/>
<path d="M509.1 355.7H506.1V358.3H509.1V355.7Z" fill="#F06365"/>
<path d="M528.5 271.2C528.5 265.1 533.5 260.1 539.6 260.1C545.7 260.1 550.7 265.1 550.7 271.2H528.5Z" fill="white"/>
<path d="M557.1 310.4L579.4 304.9C588.1 302.8 596.5 309 597 317.9L597.1 319.2C597.5 326.3 592.6 332.6 585.6 333.9L563.3 338.2C554.8 339.8 546.9 333.6 546.5 325C546 318.2 550.5 312 557.1 310.4Z" fill="#99290A"/>
<path d="M563.2 339.4C562.7 339.4 562.2 339 562 338.5C561.8 337.8 562.2 337.1 562.8 336.9L577.8 332.4C578.5 332.2 579.2 332.6 579.4 333.2C579.6 333.9 579.2 334.6 578.6 334.8L563.6 339.3C563.5 339.4 563.3 339.4 563.2 339.4Z" fill="#500715"/>
<path d="M562.1 344.3L583.3 340.9C591.5 339.6 598.9 346.1 598.7 354.4V355.6C598.5 362.3 593.4 367.7 586.8 368.4L565.6 370.6C557.6 371.4 550.7 365 550.9 357C551.1 350.7 555.8 345.3 562.1 344.3Z" fill="#99290A"/>
<path d="M556.7 379.9L574.9 377C582 375.9 588.3 381.5 588.1 388.6V389.6C587.9 395.3 583.6 400 577.9 400.6L559.7 402.5C552.8 403.2 546.9 397.7 547.1 390.8C547.2 385.3 551.3 380.8 556.7 379.9Z" fill="#99290A"/>
<path d="M365 545.5L397.9 465.2C400.2 459.6 401.4 453.6 401.3 447.5L400.4 368.6C400.3 364 401.1 359.5 402.7 355.2L428 287.4C430.6 280.3 439.5 278.1 445.2 283.1L445.6 283.5V359C445.6 359 493.2 403.2 459.7 460.3L432 545.5H365Z" fill="#99290A"/>
<path d="M565.6 371.9C565 371.9 564.5 371.5 564.4 370.9C564.3 370.2 564.7 369.6 565.4 369.4L579.7 366.4C580.4 366.3 581 366.7 581.2 367.4C581.3 368.1 580.9 368.7 580.2 368.9L565.9 371.9C565.7 371.9 565.6 371.9 565.6 371.9Z" fill="#500715"/>
<path d="M568.2 402.9C567.6 402.9 567 402.4 567 401.8C566.9 401.1 567.4 400.5 568.1 400.4L574.1 399.8C574.8 399.7 575.4 400.2 575.5 400.9C575.6 401.6 575.1 402.2 574.4 402.3L568.4 402.9C568.2 402.9 568.2 402.9 568.2 402.9Z" fill="#500715"/>
<path d="M461.9 456.9C461.7 456.9 461.4 456.8 461.2 456.7C460.6 456.3 460.5 455.5 460.9 455C466.6 446.7 468.1 442.6 468.1 442.5C468.3 441.8 469 441.5 469.7 441.7C470.4 441.9 470.7 442.6 470.5 443.3C470.4 443.5 468.9 447.7 463 456.4C462.7 456.7 462.3 456.9 461.9 456.9Z" fill="#500715"/>
<path d="M465 449.3L508.6 441.6H468.2L465 449.3Z" fill="#500715"/>
<path d="M505.1 510.7H502.8L507 500.2C508.5 496.3 505.7 492.1 501.5 492.1H383.1C380 492.1 377.2 494 376 496.9L370.5 510.7H367.3C363.4 510.7 359.8 513.1 358.4 516.7L340.7 561.6H494.5L511 519.2C512.5 515.1 509.5 510.7 505.1 510.7Z" fill="#005D92"/>
<path opacity="0.6" d="M427.5 494.6C428 497 428.5 499.4 429.3 501.8C430.6 505.6 433 510.6 437.7 512.9C442.9 515.4 448.8 513.6 453.4 511.8C466.2 506.6 477.5 498.5 486 492.1H481.9C473.9 498.1 463.8 504.9 452.5 509.5C448.4 511.2 443.2 512.8 438.9 510.7C435 508.8 432.9 504.4 431.8 501C431.1 498.8 430.5 496.4 430 494C429.9 493.3 429.7 492.7 429.6 492H427C427.1 492.9 427.3 493.7 427.5 494.6Z" fill="#0D234B"/>
<path opacity="0.6" d="M477 561.6C479.1 554.9 480.7 547.9 479.4 540.1C478.8 536.6 477.1 530.1 471.9 526.5C467.7 523.6 461.8 523.4 456.7 525.9C453.2 527.6 449.9 530.5 446.4 535C443.5 538.7 441 542.6 438.5 546.4C435 551.9 431.6 557.1 427.3 561.6H430.7C434.5 557.3 437.6 552.5 440.6 547.8C443 544 445.5 540.2 448.3 536.6C451.6 532.5 454.5 529.8 457.7 528.3C462.1 526.2 466.9 526.3 470.4 528.7C474.8 531.7 476.4 537.5 476.9 540.6C478.2 548.2 476.5 554.9 474.3 561.7H477V561.6Z" fill="#0D234B"/>
<path opacity="0.6" d="M389.8 537.9C389 541 388.1 544.2 387.3 547.4L387 548.6C386.2 552 385 556.8 384.5 561.7H387C387.5 557 388.7 552.3 389.4 549.2L389.7 548C390.4 544.9 391.3 541.7 392.1 538.6C394.2 530.8 396.4 522.8 397 514.5C397.6 506.6 396.3 500.2 393.2 495.5C392.4 494.3 391.4 493.1 390.3 492H388C387.5 492 387.1 492.1 386.6 492.1C388.5 493.5 390 495 391.1 496.8C393.9 501 395 506.9 394.5 514.2C394.1 522.4 391.9 530.3 389.8 537.9Z" fill="#0D234B"/>
<path d="M301 70H446.7C458 70 467.1 79.2 467.1 90.4V196.8V231.8V269.1C459.8 247.4 439.3 231.8 415.2 231.8H415H301C289.7 231.8 280.6 222.6 280.6 211.4V90.4C280.6 79.2 289.7 70 301 70Z" fill="#0D234B"/>
<path d="M442.5 175.9H353.9C351.7 175.9 349.9 174.1 349.9 171.9V114.4C349.9 112.2 351.7 110.4 353.9 110.4H442.5C444.7 110.4 446.5 112.2 446.5 114.4V171.9C446.5 174.1 444.7 175.9 442.5 175.9Z" fill="white"/>
<path d="M436.2 157.5H406.9C405.8 157.5 404.9 156.6 404.9 155.5C404.9 154.4 405.8 153.5 406.9 153.5H436.2C437.3 153.5 438.2 154.4 438.2 155.5C438.2 156.6 437.3 157.5 436.2 157.5Z" fill="#F3F2F2"/>
<path d="M414.2 164.1H406.9C405.8 164.1 404.9 163.2 404.9 162.1C404.9 161 405.8 160.1 406.9 160.1H414.2C415.3 160.1 416.2 161 416.2 162.1C416.2 163.2 415.3 164.1 414.2 164.1Z" fill="#F3F2F2"/>
<path d="M420 164.1C418.9 164.1 418.1 163.2 418.1 162.2V162C418.1 160.9 419 160.1 420 160.1C421.1 160.1 421.9 161 421.9 162V162.2C421.9 163.2 421 164.1 420 164.1Z" fill="#F3F2F2"/>
<path d="M441 132.5C440.6 132.5 440.3 132.2 440.3 131.8C440.3 131.4 440.6 131.1 441 131.1H441.1V129.9H441C440.6 129.9 440.3 129.6 440.3 129.2C440.3 128.8 440.6 128.5 441 128.5H441.1V127.3H441C440.6 127.3 440.3 127 440.3 126.6C440.3 126.2 440.6 125.9 441 125.9H441.1V124.7H441C440.6 124.7 440.3 124.4 440.3 124C440.3 123.6 440.6 123.3 441 123.3H441.1V122.1H441C440.6 122.1 440.3 121.8 440.3 121.4C440.3 121 440.6 120.7 441 120.7H441.1V119.5H441C440.6 119.5 440.3 119.2 440.3 118.8C440.3 118.4 440.6 118.1 441 118.1H441.1V116.9H439.9V117C439.9 117.4 439.6 117.7 439.2 117.7C438.8 117.7 438.5 117.4 438.5 117V116.9H437.3V117C437.3 117.4 437 117.7 436.6 117.7C436.2 117.7 435.9 117.4 435.9 117V116.9H434.7V117C434.7 117.4 434.4 117.7 434 117.7C433.6 117.7 433.3 117.4 433.3 117V116.9H432.1V117C432.1 117.4 431.8 117.7 431.4 117.7C431 117.7 430.7 117.4 430.7 117V116.9H429.5V117C429.5 117.4 429.2 117.7 428.8 117.7C428.4 117.7 428.1 117.4 428.1 117V116.9H426.9V117C426.9 117.4 426.6 117.7 426.2 117.7C425.8 117.7 425.5 117.4 425.5 117V116.9H424.3V118.1H424.4C424.8 118.1 425.1 118.4 425.1 118.8C425.1 119.2 424.8 119.5 424.4 119.5H424.3V120.7H424.4C424.8 120.7 425.1 121 425.1 121.4C425.1 121.8 424.8 122.1 424.4 122.1H424.3V123.3H424.4C424.8 123.3 425.1 123.6 425.1 124C425.1 124.4 424.8 124.7 424.4 124.7H424.3V125.9H424.4C424.8 125.9 425.1 126.2 425.1 126.6C425.1 127 424.8 127.3 424.4 127.3H424.3V128.5H424.4C424.8 128.5 425.1 128.8 425.1 129.2C425.1 129.6 424.8 129.9 424.4 129.9H424.3V131.1H424.4C424.8 131.1 425.1 131.4 425.1 131.8C425.1 132.2 424.8 132.5 424.4 132.5H424.3V133.7H425.5V133.6C425.5 133.2 425.8 132.9 426.2 132.9C426.6 132.9 426.9 133.2 426.9 133.6V133.7H428.1V133.6C428.1 133.2 428.4 132.9 428.8 132.9C429.2 132.9 429.5 133.2 429.5 133.6V133.7H430.7V133.6C430.7 133.2 431 132.9 431.4 132.9C431.8 132.9 432.1 133.2 432.1 133.6V133.7H433.3V133.6C433.3 133.2 433.6 132.9 434 132.9C434.4 132.9 434.7 133.2 434.7 133.6V133.7H435.9V133.6C435.9 133.2 436.2 132.9 436.6 132.9C437 132.9 437.3 133.2 437.3 133.6V133.7H438.5V133.6C438.5 133.2 438.8 132.9 439.2 132.9C439.6 132.9 439.9 133.2 439.9 133.6V133.7H441.1L441 132.5Z" fill="#F3F2F2"/>
<path d="M439.8 117.9H425.3V132.4H439.8V117.9Z" fill="#F3F2F2"/>
<path d="M398.6 168.1C398.2 168.1 397.9 167.8 397.9 167.4V118.6C397.9 118.2 398.2 117.9 398.6 117.9C399 117.9 399.3 118.2 399.3 118.6V167.4C399.2 167.8 398.9 168.1 398.6 168.1Z" fill="#F3F2F2"/>
<path d="M435.9 122.4C435.2 121.7 434.1 121.7 433.5 122.4L432.6 123.3L431.7 122.4C431 121.7 429.9 121.7 429.3 122.4C428.6 123.1 428.6 124.2 429.3 124.8L430.2 125.7L432.6 128.1L435 125.7L435.9 124.8C436.5 124.1 436.5 123 435.9 122.4Z" fill="white"/>
<path d="M376 98.3L400.3 188.9C400.9 191.3 399.5 193.7 397.1 194.4L331.9 211.9C329.5 212.5 327.1 211.1 326.4 208.7L302.1 118.1C301.5 115.7 302.9 113.3 305.3 112.6L370.5 95.1C372.9 94.5 375.3 95.9 376 98.3Z" fill="white"/>
<path d="M372.3 102.7L394.8 186.8C395.2 188.4 394.3 190.1 392.7 190.5L333.9 206.3C332.3 206.7 330.6 205.8 330.2 204.2L307.7 120.1C307.3 118.5 308.2 116.8 309.8 116.4L368.6 100.6C370.2 100.2 371.8 101.1 372.3 102.7Z" fill="#E8F9EF"/>
<path d="M336.8 144.4C336 141.2 337.8 138 341 137.1C344.2 136.2 347.4 138.1 348.3 141.3L336.8 144.4Z" fill="white"/>
<path d="M325.7 147.3C324.9 144.1 326.7 140.9 329.9 140C333.1 139.2 336.3 141 337.2 144.2L325.7 147.3Z" fill="white"/>
<path d="M370.2 180.3L347.5 186.4C346.9 186.6 346.3 186.2 346.2 185.6L341.4 167.6C341.2 167 341.6 166.4 342.2 166.3L364.9 160.2C365.5 160 366.1 160.4 366.2 161L371 179C371.1 179.6 370.8 180.2 370.2 180.3Z" fill="#5EC584"/>
<path d="M367 178.3L349.2 183.1C348.7 183.2 348.3 182.9 348.1 182.5L344.6 169.4C344.5 168.9 344.8 168.5 345.2 168.3L363 163.5C363.5 163.4 363.9 163.7 364.1 164.1L367.6 177.2C367.8 177.7 367.5 178.2 367 178.3Z" fill="#005E41"/>
<path d="M356.1 179.6C359.579 179.6 362.4 176.779 362.4 173.3C362.4 169.821 359.579 167 356.1 167C352.62 167 349.8 169.821 349.8 173.3C349.8 176.779 352.62 179.6 356.1 179.6Z" fill="#EEEEEE"/>
<path d="M358.4 173.7L356.5 174.2C356 174.3 355.6 174.1 355.4 173.6L354.7 171C354.6 170.6 354.8 170.2 355.2 170.1C355.6 170 356 170.2 356.1 170.6L356.7 172.7L358.1 172.3C358.5 172.2 358.9 172.4 359 172.8C359 173.2 358.8 173.6 358.4 173.7Z" fill="#F06365"/>
<path d="M368.413 180.065L348.901 185.293L353.146 201.133L372.657 195.906L368.413 180.065Z" fill="#5EC584"/>
<path d="M361.551 154.613L342.04 159.841L343.825 166.506L363.336 161.278L361.551 154.613Z" fill="#5EC584"/>
<path d="M369.3 183.5L368.6 180.8L349.1 186" fill="#002F24"/>
<path d="M355.5 148.3L344.1 151.3L342.1 159.8L361.6 154.6L355.5 148.3Z" fill="#005E41"/>
<path d="M354.082 142.976L342.685 146.03L344.134 151.439L355.532 148.385L354.082 142.976Z" fill="#5EC584"/>
<path d="M344.5 131.1L345.1 130.9L354.1 142.9L342.7 146L344.5 131.1Z" fill="#005E41"/>
<g opacity="0.5">
<g opacity="0.5">
<path opacity="0.5" d="M348.4 164.6L346.4 165.1L345.6 162.1C345.5 161.5 345.8 161 346.3 160.8C346.9 160.7 347.4 161 347.6 161.5L348.4 164.6Z" fill="#ABE3BB"/>
</g>
</g>
<g opacity="0.5">
<g opacity="0.5">
<path opacity="0.5" d="M352.4 163.5L350.4 164L349.6 161C349.5 160.4 349.8 159.9 350.3 159.7C350.9 159.6 351.4 159.9 351.6 160.4L352.4 163.5Z" fill="#ABE3BB"/>
</g>
</g>
<g opacity="0.5">
<g opacity="0.5">
<path opacity="0.5" d="M356.5 162.4L354.5 162.9L353.7 159.9C353.6 159.3 353.9 158.8 354.4 158.6C355 158.5 355.5 158.8 355.7 159.3L356.5 162.4Z" fill="#ABE3BB"/>
</g>
</g>
<g opacity="0.5">
<g opacity="0.5">
<path opacity="0.5" d="M360.5 161.4L358.5 161.9L357.7 158.9C357.6 158.3 357.9 157.8 358.4 157.6C359 157.5 359.5 157.8 359.7 158.3L360.5 161.4Z" fill="#ABE3BB"/>
</g>
</g>
<g opacity="0.5">
<g opacity="0.5">
<path opacity="0.5" d="M348.8 150.1L346.8 150.6L346 147.6C345.9 147 346.2 146.5 346.7 146.3C347.3 146.2 347.8 146.5 348 147L348.8 150.1Z" fill="#ABE3BB"/>
</g>
</g>
<g opacity="0.5">
<g opacity="0.5">
<path opacity="0.5" d="M352.9 149L350.9 149.5L350.1 146.5C350 145.9 350.3 145.4 350.8 145.2C351.4 145.1 351.9 145.4 352.1 145.9L352.9 149Z" fill="#ABE3BB"/>
</g>
</g>
<g opacity="0.5">
<g opacity="0.5">
<path opacity="0.5" d="M357.9 199.9L355.9 200.4L353.4 190.9C353.3 190.3 353.6 189.8 354.1 189.6C354.7 189.5 355.2 189.8 355.4 190.3L357.9 199.9Z" fill="#ABE3BB"/>
</g>
</g>
<g opacity="0.5">
<g opacity="0.5">
<path opacity="0.5" d="M361.9 198.8L359.9 199.3L357.4 189.8C357.3 189.2 357.6 188.7 358.1 188.5C358.7 188.4 359.2 188.7 359.4 189.2L361.9 198.8Z" fill="#ABE3BB"/>
</g>
</g>
<g opacity="0.5">
<g opacity="0.5">
<path opacity="0.5" d="M365.9 197.8L363.9 198.3L361.4 188.8C361.3 188.2 361.6 187.7 362.1 187.5C362.7 187.4 363.2 187.7 363.4 188.2L365.9 197.8Z" fill="#ABE3BB"/>
</g>
</g>
<g opacity="0.5">
<g opacity="0.5">
<path opacity="0.5" d="M370 196.7L368 197.2L365.5 187.7C365.4 187.1 365.7 186.6 366.2 186.4C366.8 186.3 367.3 186.6 367.5 187.1L370 196.7Z" fill="#ABE3BB"/>
</g>
</g>
<path d="M346 135.5C345.8 135.6 345.5 135.4 345.5 135.2L342.3 123.3C342.2 123.1 342.4 122.8 342.6 122.8C342.8 122.7 343.1 122.9 343.1 123.1L346.3 135C346.4 135.2 346.2 135.4 346 135.5Z" fill="#005E41"/>
<path d="M356.892 172.723L355.347 173.137L355.709 174.489L357.254 174.075L356.892 172.723Z" fill="#F06365"/>
<path d="M355.2 126.3C354.4 123.1 356.2 119.9 359.4 119C362.6 118.2 365.8 120 366.7 123.2L355.2 126.3Z" fill="white"/>
<path d="M158.1 183.8C158.1 169.6 169.6 158.1 183.8 158.1C198 158.1 209.5 169.6 209.5 183.8H158.1Z" fill="white"/>
</g>
<defs>
<clipPath id="clip0_19663_15397">
<rect width="1000" height="560" fill="white"/>
</clipPath>
</defs>
</svg>
