<svg width="200" height="100" viewBox="0 0 200 100" fill="none" xmlns="http://www.w3.org/2000/svg">
<rect width="200" height="100" fill="#EEEEEE"/>
<path d="M106 60H92C91.4696 60 90.9609 59.7893 90.5858 59.4142C90.2107 59.0391 90 58.5304 90 58V44M110 51L108.704 49.704C108.252 49.2521 107.639 48.9983 107 48.9983C106.361 48.9983 105.748 49.2521 105.296 49.704L99 56M102 46C102 47.1046 101.105 48 100 48C98.8954 48 98 47.1046 98 46C98 44.8954 98.8954 44 100 44C101.105 44 102 44.8954 102 46ZM96 40H108C109.105 40 110 40.8954 110 42V54C110 55.1046 109.105 56 108 56H96C94.8954 56 94 55.1046 94 54V42C94 40.8954 94.8954 40 96 40Z" stroke="#194086" stroke-width="2" stroke-linecap="round" stroke-linejoin="round"/>
</svg>
