<svg width="1005" height="560" viewBox="0 0 1005 560" fill="none" xmlns="http://www.w3.org/2000/svg">
<g clip-path="url(#clip0_19663_14359)">
<path d="M1004.15 0H0V560H1004.15V0Z" fill="#ABE3BB"/>
<g clip-path="url(#clip1_19663_14359)">
<path opacity="0.3" d="M847.9 422.5C848.3 422.5 845.2 401.5 845 400.5C841.8 386.9 836.3 373.6 828 362.4C800.7 325.8 748.8 330.3 709.8 313.7C682.4 302 657 283.5 642.6 257.4C606.8 192.6 561.6 139.6 488.3 117.9C449.1 106.3 407.4 104.4 366.9 110.1C331.5 115.1 296.5 126.1 266.6 145.6C215 179.3 180.2 244.4 192.4 307C206.6 380.2 269.6 422.5 269.6 422.5C269.6 422.5 847.2 422.5 847.9 422.5Z" fill="#0AA85C"/>
<path d="M827.8 402.1H411.5V393.4C411.5 388.2 415.7 384 420.9 384H818.6C823.7 384 827.8 388.1 827.8 393.2V402.1Z" fill="#0D234B"/>
<path d="M752 423.9C769.066 423.9 782.9 410.289 782.9 393.5C782.9 376.711 769.066 363.1 752 363.1C734.934 363.1 721.1 376.711 721.1 393.5C721.1 410.289 734.934 423.9 752 423.9Z" fill="#0D234B"/>
<path d="M557 423.9C574.066 423.9 587.9 410.289 587.9 393.5C587.9 376.71 574.066 363.1 557 363.1C539.935 363.1 526.1 376.71 526.1 393.5C526.1 410.289 539.935 423.9 557 423.9Z" fill="#0D234B"/>
<path d="M792.1 384.1H580.1V230.2H700.1C714 230.2 727 237.2 734.5 248.8L792.2 338.7V384.1H792.1Z" fill="#005D92"/>
<path d="M737.5 253.6H596.7V319H779.5L737.5 253.6Z" fill="#0D234B"/>
<path d="M625.5 245.3C619.4 235.9 608.8 230.2 597.4 230.2H447.3C432.6 230.2 420.7 241.9 420.7 256.4V384.1H686.4V338.7L625.5 245.3Z" fill="#00A0D6"/>
<path d="M488.2 336.3C488.2 336.3 443 297.4 430.6 235.9C424.5 240.7 420.6 248.1 420.6 256.4V337L488.2 336.3Z" fill="#0D234B"/>
<path d="M420.7 298V384.1H524.1C514 352.1 474.6 318.7 420.7 298Z" fill="#F06365"/>
<path d="M524.7 384.1C514.8 355.3 485.1 334.5 450 334.5C439.6 334.5 429.8 336.3 420.7 339.6V384.1H524.7Z" fill="#005D92"/>
<path d="M630.9 253.6H619.8C601.5 253.6 586.6 268.2 586.6 286.3C586.6 304.4 601.5 319 619.8 319H673.6L630.9 253.6Z" fill="#005D92"/>
<path d="M475.7 423.9C492.766 423.9 506.6 410.289 506.6 393.5C506.6 376.711 492.766 363.1 475.7 363.1C458.634 363.1 444.8 376.711 444.8 393.5C444.8 410.289 458.634 423.9 475.7 423.9Z" fill="#0D234B"/>
<path d="M475.7 404.7C481.941 404.7 487 399.686 487 393.5C487 387.314 481.941 382.3 475.7 382.3C469.459 382.3 464.4 387.314 464.4 393.5C464.4 399.686 469.459 404.7 475.7 404.7Z" fill="#005D92"/>
<path d="M726.9 384.1H669.1V319H696.6C713.4 319 727 332.6 727 349.4V384.1H726.9Z" fill="#00A0D6"/>
<path d="M649.5 423.9C666.566 423.9 680.4 410.289 680.4 393.5C680.4 376.71 666.566 363.1 649.5 363.1C632.434 363.1 618.6 376.71 618.6 393.5C618.6 410.289 632.434 423.9 649.5 423.9Z" fill="#0D234B"/>
<path d="M660.8 393.5C660.8 399.7 655.7 404.7 649.5 404.7C643.3 404.7 638.2 399.7 638.2 393.5C638.2 387.3 643.3 382.3 649.5 382.3C655.7 382.3 660.8 387.4 660.8 393.5Z" fill="#005D92"/>
<path d="M818.6 384.1H780L765.6 319H788C804.9 319 818.6 332.5 818.6 349.1V384.1Z" fill="#005D92"/>
<path d="M686.5 319L683.1 313.7L664.2 305C660.2 303.2 655.8 302.2 651.4 302.2C645.8 302.2 641.3 306.7 641.3 312.2V318.9H686.5V319Z" fill="#0D234B"/>
<path d="M730.3 365.2H723.3C718.7 365.2 715 361.5 715 356.9C715 352.3 718.7 348.6 723.3 348.6H730.3C734.9 348.6 738.6 352.3 738.6 356.9C738.6 361.5 734.9 365.2 730.3 365.2Z" fill="#8EDDF9"/>
<path d="M818.6 365.2H815.2C810.6 365.2 806.8 361.5 806.8 356.9C806.8 352.3 810.6 348.6 815.2 348.6H818.6V365.2Z" fill="#8EDDF9"/>
<path d="M197.1 226.5C197.1 207.9 212.2 192.7 230.9 192.7C249.6 192.7 264.7 207.8 264.7 226.5H197.1Z" fill="white"/>
<path d="M132 226.5C132 207.9 147.1 192.7 165.8 192.7C184.5 192.7 199.6 207.8 199.6 226.5H132Z" fill="white"/>
<path d="M772.4 209.6C772.4 191 787.5 175.8 806.2 175.8C824.9 175.8 840 190.9 840 209.6H772.4Z" fill="white"/>
<path d="M707.3 209.6C707.3 191 722.4 175.8 741.1 175.8C759.8 175.8 774.9 190.9 774.9 209.6H707.3Z" fill="white"/>
<path d="M416.5 168.2C416.5 149.6 431.6 134.4 450.3 134.4C469 134.4 484.1 149.5 484.1 168.2H416.5Z" fill="white"/>
<path d="M227.8 352.6H208.8C200.8 352.6 195.8 344 199.6 337C203.5 330 213.4 329.7 217.7 336.5L227.8 352.6Z" fill="#005E41"/>
<path d="M226.2 352.6H245.2C253.2 352.6 258.2 344 254.4 337C250.5 330 240.6 329.7 236.3 336.5L226.2 352.6Z" fill="#005E41"/>
<path d="M227.1 327.1L235.7 311.4C239.3 304.8 234.5 296.8 227 296.8C219.5 296.8 214.8 304.9 218.4 311.5L227.1 327.1Z" fill="#005E41"/>
<path d="M228 387.2L204.5 387.1C194.6 387.1 188.4 376.5 193.2 367.8C198 359.2 210.3 358.8 215.5 367.2L228 387.2Z" fill="#005E41"/>
<path d="M226 387.2L249.5 387.1C259.4 387.1 265.6 376.5 260.8 367.8C256 359.2 243.7 358.8 238.5 367.2L226 387.2Z" fill="#005E41"/>
<path d="M228.1 424.1L201.7 424C190.6 424 183.6 412.1 189 402.3C194.4 392.6 208.2 392.2 214.1 401.6L228.1 424.1Z" fill="#005E41"/>
<path d="M225.8 424.1L252.2 424C263.3 424 270.3 412.1 264.9 402.3C259.5 392.6 245.7 392.2 239.8 401.6L225.8 424.1Z" fill="#005E41"/>
<path d="M279.8 392.8H262.6C255.4 392.8 250.8 385 254.3 378.7C257.8 372.4 266.8 372.1 270.6 378.3L279.8 392.8Z" fill="#5EC584"/>
<path d="M278.3 392.8H295.5C302.7 392.8 307.3 385 303.8 378.7C300.3 372.4 291.3 372.1 287.5 378.3L278.3 392.8Z" fill="#5EC584"/>
<path d="M279.1 369.8L286.8 355.6C290 349.6 285.7 342.4 278.9 342.4C272.1 342.4 267.9 349.7 271.2 355.6L279.1 369.8Z" fill="#5EC584"/>
<path d="M279.9 424.1H258.6C249.7 424.1 244 414.5 248.4 406.7C252.7 398.9 263.9 398.6 268.6 406.1L279.9 424.1Z" fill="#5EC584"/>
<path d="M278.1 424.1H299.4C308.3 424.1 314 414.5 309.6 406.7C305.3 398.9 294.1 398.6 289.4 406.1L278.1 424.1Z" fill="#5EC584"/>
<path d="M279 356.1V422.7" stroke="#002F24" stroke-width="1.5" stroke-linecap="round" stroke-linejoin="round"/>
<path d="M228.2 313.5C228.2 312.8 227.6 312.3 227 312.3C226.4 312.3 225.8 312.9 225.8 313.5V381.2V423.8H228.3V313.5H228.2Z" fill="#002F24"/>
<path d="M358.4 424H278V270C278 262.1 284.4 255.7 292.3 255.7H344C351.9 255.7 358.3 262.1 358.3 270V424H358.4Z" fill="#0D234B"/>
<path d="M377.2 424H296.8V270C296.8 262.1 303.2 255.7 311.1 255.7H362.8C370.7 255.7 377.1 262.1 377.1 270V424H377.2Z" fill="#005D92"/>
<path d="M317.5 268.8H356.4C360.7 268.8 364.2 272.3 364.2 276.6V311H309.6V276.6C309.7 272.3 313.2 268.8 317.5 268.8Z" fill="#8EDDF9"/>
<path d="M362.8 318.4H311.1C310.4 318.4 309.9 317.8 309.9 317.2C309.9 316.6 310.5 316 311.1 316H362.8C363.5 316 364 316.6 364 317.2C364 317.8 363.5 318.4 362.8 318.4Z" fill="#0D234B"/>
<path d="M870.2 424.1H160.7C160 424.1 159.5 423.5 159.5 422.9C159.5 422.3 160.1 421.7 160.7 421.7H870.2C870.9 421.7 871.4 422.3 871.4 422.9C871.4 423.5 870.9 424.1 870.2 424.1Z" fill="#0D234B"/>
<path d="M432.6 367.2C430.3 365.2 428.9 362.3 428.9 359.1C428.9 353.2 433.7 348.4 439.6 348.4C445.5 348.4 450.3 353.2 450.3 359.1C450.3 365 445.5 369.8 439.6 369.8" stroke="#0D234B" stroke-width="2.5" stroke-miterlimit="10"/>
<path d="M439.6 366.1C443.466 366.1 446.6 362.966 446.6 359.1C446.6 355.234 443.466 352.1 439.6 352.1C435.734 352.1 432.6 355.234 432.6 359.1C432.6 362.966 435.734 366.1 439.6 366.1Z" fill="#ABE3BB"/>
<path d="M431 380.8C429.3 380.8 428 379.5 428 377.8V369.1C428 368.4 428.2 367.7 428.7 367.2L436.9 357.5C438 356.2 439.9 356.1 441.1 357.1C442.4 358.2 442.5 360.1 441.5 361.3L434 370.2V377.8C434 379.4 432.6 380.8 431 380.8Z" fill="#0D234B"/>
<path d="M434.4 376.1C432.2 376.1 430.4 374.3 430.4 372.1C430.4 369.9 432.2 368.1 434.4 368.1C436.6 368.1 438.4 369.9 438.4 372.1C438.4 374.3 436.6 376.1 434.4 376.1ZM434.4 370.5C433.6 370.5 432.9 371.2 432.9 372C432.9 372.8 433.6 373.5 434.4 373.5C435.2 373.5 435.9 372.8 435.9 372C435.9 371.2 435.2 370.5 434.4 370.5Z" fill="#0D234B"/>
<path d="M411.9 453.1C400.7 453.1 391.6 444 391.6 432.8V383.6C391.6 379 387.8 375.2 383.2 375.2H378.9C378.2 375.2 377.7 374.6 377.7 374C377.7 373.4 378.3 372.8 378.9 372.8H383.2C389.2 372.8 394.1 377.7 394.1 383.7V432.8C394.1 442.6 402.1 450.6 411.9 450.6C421.7 450.6 429.7 442.6 429.7 432.8V374C429.7 373.3 430.3 372.8 430.9 372.8C431.5 372.8 432.1 373.4 432.1 374V432.8C432.2 444 423.1 453.1 411.9 453.1Z" fill="#0D234B"/>
<path d="M330.3 382.9C321 382.9 315.2 372.9 319.7 364.8L330.5 345.6L341 364.9C345.4 373.1 339.5 382.9 330.3 382.9Z" fill="#ABE3BB"/>
<path d="M346.2 358C340.3 358 336.5 351.6 339.4 346.4L346.3 334.1L353 346.5C355.8 351.7 352.1 358 346.2 358Z" fill="#ABE3BB"/>
<path d="M376.8 382.5H370.8V364.3H376.8C379.9 364.3 382.3 366.8 382.3 369.8V377C382.3 380 379.8 382.5 376.8 382.5Z" fill="#005D92"/>
</g>
</g>
<defs>
<clipPath id="clip0_19663_14359">
<rect width="1004.15" height="560" fill="white"/>
</clipPath>
<clipPath id="clip1_19663_14359">
<rect width="739.4" height="346.1" fill="white" transform="translate(132 107)"/>
</clipPath>
</defs>
</svg>
