<svg width="153" height="29" viewBox="0 0 153 29" fill="none" xmlns="http://www.w3.org/2000/svg">
<g clip-path="url(#clip0_1_5)">
<path d="M117.034 14.4269C117.034 21.2442 111.475 24.1044 106.281 24.1044C101.087 24.1044 95.7003 21.3195 95.7003 14.728C95.7003 7.97518 101.163 5.0504 106.453 5.0504C111.744 5.0504 117.034 7.86765 117.034 14.4269ZM109.98 14.6204C109.98 14.1403 109.885 13.6649 109.702 13.2214C109.518 12.7778 109.249 12.3748 108.909 12.0353C108.57 11.6958 108.167 11.4265 107.723 11.2428C107.28 11.059 106.804 10.9645 106.324 10.9645C105.844 10.9645 105.369 11.059 104.925 11.2428C104.481 11.4265 104.078 11.6958 103.739 12.0353C103.399 12.3748 103.13 12.7778 102.946 13.2214C102.763 13.6649 102.668 14.1403 102.668 14.6204C102.65 15.1078 102.733 15.5936 102.911 16.0474C103.09 16.5012 103.36 16.9132 103.705 17.2575C104.051 17.6018 104.464 17.871 104.918 18.0482C105.372 18.2254 105.858 18.3068 106.346 18.2871C106.83 18.3087 107.314 18.2288 107.767 18.0524C108.219 17.876 108.629 17.6071 108.971 17.2629C109.313 16.9187 109.58 16.5068 109.754 16.0536C109.927 15.6004 110.004 15.1159 109.98 14.6312V14.6204ZM20.7315 14.6204C20.7315 19.8141 17.1615 24.1044 11.6023 24.1044C9.77967 24.2121 7.98658 23.6067 6.60224 22.4162V28.7174H0V5.6203H6.6345V7.38377C7.31686 6.6071 8.1647 5.99333 9.11562 5.58766C10.0665 5.18198 11.0963 4.99472 12.1292 5.03965C17.6454 5.03965 20.7637 9.29778 20.7637 14.6312L20.7315 14.6204ZM13.7099 14.6204C13.7493 14.1284 13.6847 13.6336 13.5203 13.1681C13.3558 12.7027 13.0952 12.2771 12.7554 11.9191C12.4156 11.561 12.0043 11.2785 11.5481 11.09C11.0919 10.9014 10.6011 10.811 10.1077 10.8247C9.60928 10.8048 9.11234 10.8909 8.64967 11.0773C8.187 11.2636 7.76912 11.546 7.4236 11.9057C7.07809 12.2654 6.81282 12.6944 6.64528 13.1642C6.47775 13.634 6.41177 14.134 6.4517 14.6312C6.4337 15.1166 6.51587 15.6006 6.69309 16.0529C6.87031 16.5052 7.13878 16.9161 7.48177 17.2601C7.82476 17.6041 8.23492 17.8738 8.6867 18.0523C9.13847 18.2309 9.62218 18.3145 10.1077 18.2979C10.5935 18.3196 11.0785 18.2394 11.5314 18.0623C11.9843 17.8853 12.3952 17.6154 12.7376 17.2701C13.0799 16.9247 13.3461 16.5114 13.5192 16.057C13.6922 15.6025 13.7681 15.1168 13.7421 14.6312L13.7099 14.6204ZM125.206 14.9108C125.206 12.1795 126.862 11.3408 129.077 11.3408C129.835 11.3275 130.59 11.4364 131.314 11.6634L131.507 5.55579C131.004 5.39412 130.475 5.32847 129.948 5.36224C126.238 5.36224 125.238 7.70635 125.238 7.70635V5.6203H118.604V23.556H125.238V14.9538L125.206 14.9108ZM152.4 0.0718384V23.556H145.776V21.8033C145.094 22.58 144.246 23.1938 143.295 23.5994C142.344 24.0051 141.314 24.1924 140.282 24.1474C134.755 24.1474 131.679 19.8463 131.679 14.5667C131.679 9.28702 135.249 5.08266 140.808 5.08266C142.631 4.97497 144.424 5.58037 145.809 6.77086V1.39444L152.4 0.0718384ZM145.948 14.5667C145.968 14.0799 145.887 13.5943 145.709 13.1405C145.532 12.6867 145.263 12.2746 144.918 11.9301C144.574 11.5856 144.162 11.3162 143.708 11.1389C143.254 10.9616 142.768 10.8802 142.282 10.8999C141.802 10.8875 141.325 10.9742 140.881 11.1547C140.436 11.3352 140.034 11.6055 139.699 11.9487C139.363 12.2919 139.103 12.7006 138.933 13.1493C138.763 13.5979 138.688 14.0768 138.712 14.5559C138.649 15.0696 138.696 15.5907 138.85 16.0848C139.004 16.5789 139.261 17.0347 139.604 17.4221C139.947 17.8095 140.368 18.1197 140.84 18.3321C141.312 18.5446 141.823 18.6544 142.341 18.6544C142.858 18.6544 143.37 18.5446 143.842 18.3321C144.313 18.1197 144.735 17.8095 145.078 17.4221C145.421 17.0347 145.678 16.5789 145.832 16.0848C145.985 15.5907 146.032 15.0696 145.97 14.5559L145.948 14.5667ZM87.4744 5.03965C83.6033 5.03965 82.2055 7.38377 82.2055 7.38377V5.6203H75.5817V23.556H82.2055V14.3624C82.2055 12.0935 83.0549 11.0505 85.098 11.0505C87.141 11.0505 87.4421 12.7387 87.4421 14.8893V23.5668H94.1304V12.5451C94.1411 7.59883 91.7647 5.03965 87.4744 5.03965ZM68.8934 1.59874H62.2589V23.556H68.8827V11.2118H72.044L75.0656 5.6203H68.8934V1.59874ZM54.0438 12.1258C51.8932 11.8032 50.9577 11.8032 50.9577 10.9537C50.9577 10.1042 51.8287 9.94295 53.5599 9.94295C55.4322 9.97074 57.2878 10.3012 59.0546 10.9215L60.2159 5.88912C58.0614 5.34403 55.8468 5.07307 53.6244 5.08266C47.291 5.08266 43.9469 7.52356 43.9469 11.4161C43.9469 14.4376 45.7318 16.2226 50.9685 16.9108C53.1835 17.2011 53.99 17.3301 53.99 18.1474C53.99 18.9646 53.1083 19.2226 51.5814 19.2226C49.3628 19.1601 47.1752 18.6861 45.1297 17.8248L43.8393 22.9754C46.1645 23.6991 48.587 24.0617 51.0222 24.0507C57.8503 24.0507 61.0009 21.642 61.0009 17.7172C60.9901 14.6312 59.3019 12.9752 54.0438 12.1258ZM43.2157 14.4269C43.2157 21.2442 37.6564 24.1044 32.4628 24.1044C27.2692 24.1044 21.9035 21.3087 21.9035 14.7172C21.9035 7.96442 27.366 5.03965 32.6564 5.03965C37.9468 5.03965 43.2157 7.86765 43.2157 14.4269ZM36.1618 14.6204C36.1618 13.6508 35.7766 12.7209 35.091 12.0353C34.4054 11.3496 33.4755 10.9645 32.5058 10.9645C31.5362 10.9645 30.6063 11.3496 29.9207 12.0353C29.2351 12.7209 28.8499 13.6508 28.8499 14.6204C28.8302 15.1072 28.9115 15.5928 29.0888 16.0466C29.2661 16.5004 29.5355 16.9125 29.88 17.257C30.2245 17.6015 30.6366 17.8709 31.0904 18.0482C31.5442 18.2255 32.0298 18.3069 32.5166 18.2871C33.0023 18.3103 33.4875 18.2315 33.941 18.0558C34.3944 17.8801 34.8061 17.6114 35.1495 17.267C35.4928 16.9227 35.7603 16.5102 35.9346 16.0563C36.109 15.6023 36.1864 15.1169 36.1618 14.6312V14.6204Z" fill="#F8F8F8"/>
</g>
<defs>
<clipPath id="clip0_1_5">
<rect width="152.4" height="28.8" fill="white"/>
</clipPath>
</defs>
</svg>
