<svg width="24" height="24" viewBox="0 0 24 24" fill="currentColor" xmlns="http://www.w3.org/2000/svg">
<g id="cart">
<path id="Vector" fill-rule="evenodd" clip-rule="evenodd" d="M2 2C1.73478 2 1.48043 2.10536 1.29289 2.29289C1.10536 2.48043 1 2.73478 1 3C1 3.26522 1.10536 3.51957 1.29289 3.70711C1.48043 3.89464 1.73478 4 2 4H2.01C2.27522 4 2.52957 3.89464 2.71711 3.70711C2.90464 3.51957 3.01 3.26522 3.01 3C3.01 2.73478 2.90464 2.48043 2.71711 2.29289C2.52957 2.10536 2.27522 2 2.01 2H2ZM4.448 3.606C4.33025 3.5437 4.20123 3.50556 4.06853 3.49381C3.93583 3.48206 3.80212 3.49695 3.67526 3.53759C3.54839 3.57823 3.43092 3.64382 3.32975 3.73049C3.22859 3.81716 3.14575 3.92317 3.08612 4.0423C3.02649 4.16143 2.99127 4.29127 2.98251 4.4242C2.97376 4.55713 2.99165 4.69047 3.03514 4.81639C3.07864 4.94231 3.14685 5.05827 3.23578 5.15746C3.32471 5.25665 3.43256 5.33707 3.553 5.394L4.13 5.684C4.46614 5.85175 4.83079 5.95487 5.205 5.988L6.737 12.5H6.5C5.83696 12.5 5.20107 12.7634 4.73223 13.2322C4.26339 13.7011 4 14.337 4 15C4 15.663 4.26339 16.2989 4.73223 16.7678C5.20107 17.2366 5.83696 17.5 6.5 17.5H20C20.2652 17.5 20.5196 17.3946 20.7071 17.2071C20.8946 17.0196 21 16.7652 21 16.5C21 16.2348 20.8946 15.9804 20.7071 15.7929C20.5196 15.6054 20.2652 15.5 20 15.5H6.5C6.36739 15.5 6.24021 15.4473 6.14645 15.3536C6.05268 15.2598 6 15.1326 6 15C6 14.8674 6.05268 14.7402 6.14645 14.6464C6.24021 14.5527 6.36739 14.5 6.5 14.5H18C18.7956 14.5 19.5587 14.1839 20.1213 13.6213C20.6839 13.0587 21 12.2956 21 11.5V7C21 6.20435 20.6839 5.44129 20.1213 4.87868C19.5587 4.31607 18.7956 4 18 4H5.472C5.31679 3.99983 5.16376 3.96354 5.025 3.894L4.448 3.606ZM8.792 12.5L7.262 6H18C18.2652 6 18.5196 6.10536 18.7071 6.29289C18.8946 6.48043 19 6.73478 19 7V11.5C19 11.7652 18.8946 12.0196 18.7071 12.2071C18.5196 12.3946 18.2652 12.5 18 12.5H8.792ZM8 18C7.46957 18 6.96086 18.2107 6.58579 18.5858C6.21071 18.9609 6 19.4696 6 20C6 20.5304 6.21071 21.0391 6.58579 21.4142C6.96086 21.7893 7.46957 22 8 22C8.53043 22 9.03914 21.7893 9.41421 21.4142C9.78929 21.0391 10 20.5304 10 20C10 19.4696 9.78929 18.9609 9.41421 18.5858C9.03914 18.2107 8.53043 18 8 18ZM19.5 18C18.9696 18 18.4609 18.2107 18.0858 18.5858C17.7107 18.9609 17.5 19.4696 17.5 20C17.5 20.5304 17.7107 21.0391 18.0858 21.4142C18.4609 21.7893 18.9696 22 19.5 22C20.0304 22 20.5391 21.7893 20.9142 21.4142C21.2893 21.0391 21.5 20.5304 21.5 20C21.5 19.4696 21.2893 18.9609 20.9142 18.5858C20.5391 18.2107 20.0304 18 19.5 18Z" fill="currentColor"/>
</g>
</svg>
