<svg width="24" height="24" viewBox="0 0 24 24" fill="currentColor" xmlns="http://www.w3.org/2000/svg">
<g id="globe">
<path id="Vector" fill-rule="evenodd" clip-rule="evenodd" d="M4.252 10C4.08401 10.6534 3.99934 11.3254 4 12C4 12.69 4.088 13.36 4.252 14H7.418C7.22374 12.6737 7.22374 11.3263 7.418 10H4.252ZM5.07 8H7.865C8.25528 6.71194 8.83459 5.48894 9.584 4.371C7.67982 4.97615 6.07009 6.27028 5.07 8ZM12 4.48C11.1239 5.5261 10.4376 6.71739 9.972 8H14.028C13.5624 6.71739 12.8761 5.5261 12 4.48ZM14.557 10H9.443C9.21536 11.3236 9.21536 12.6764 9.443 14H14.557C14.7846 12.6764 14.7846 11.3236 14.557 10ZM16.582 14C16.7763 12.6737 16.7763 11.3263 16.582 10H19.748C19.913 10.64 20 11.31 20 12C20 12.69 19.913 13.36 19.748 14H16.582ZM14.028 16H9.972C10.4376 17.2826 11.1239 18.4739 12 19.52C12.8761 18.4739 13.5624 17.2826 14.028 16ZM9.584 19.629C8.83424 18.5111 8.25459 17.2881 7.864 16H5.07C6.07009 17.7297 7.67982 19.0239 9.584 19.629ZM14.416 19.629C15.1658 18.5111 15.7454 17.2881 16.136 16H18.93C17.9299 17.7297 16.3202 19.0239 14.416 19.629ZM18.93 8H16.135C15.7447 6.71194 15.1654 5.48894 14.416 4.371C16.3202 4.97615 17.9299 6.27028 18.93 8ZM2 12C2 6.477 6.477 2 12 2C17.523 2 22 6.477 22 12C22 17.523 17.523 22 12 22C6.477 22 2 17.523 2 12Z" fill="white" style="fill:white;fill-opacity:1;"/>
</g>
</svg>
