<svg width="24" height="24" viewBox="0 0 24 24" fill="currentColor" xmlns="http://www.w3.org/2000/svg">
<g id="user">
<path id="Vector" fill-rule="evenodd" clip-rule="evenodd" d="M7.49996 7.5C7.49996 6.30653 7.97407 5.16193 8.81798 4.31802C9.6619 3.47411 10.8065 3 12 3C13.1934 3 14.338 3.47411 15.1819 4.31802C16.0259 5.16193 16.5 6.30653 16.5 7.5C16.5 8.69347 16.0259 9.83807 15.1819 10.682C14.338 11.5259 13.1934 12 12 12C10.8065 12 9.6619 11.5259 8.81798 10.682C7.97407 9.83807 7.49996 8.69347 7.49996 7.5ZM12 5C11.3369 5 10.701 5.26339 10.2322 5.73223C9.76335 6.20107 9.49996 6.83696 9.49996 7.5C9.49996 8.16304 9.76335 8.79893 10.2322 9.26777C10.701 9.73661 11.3369 10 12 10C12.663 10 13.2989 9.73661 13.7677 9.26777C14.2366 8.79893 14.5 8.16304 14.5 7.5C14.5 6.83696 14.2366 6.20107 13.7677 5.73223C13.2989 5.26339 12.663 5 12 5ZM4.92796 20.372C4.82441 20.6108 4.63181 20.7999 4.39109 20.8989C4.15037 20.998 3.88051 20.9993 3.63885 20.9026C3.39719 20.8058 3.20277 20.6186 3.09692 20.3808C2.99106 20.143 2.98211 19.8733 3.07196 19.629L3.95496 19.982C3.65995 19.8657 3.36561 19.7487 3.07196 19.629V19.626L3.07296 19.624L3.07596 19.617L3.08396 19.599C3.11909 19.5144 3.15711 19.431 3.19796 19.349C3.27596 19.188 3.39096 18.966 3.54796 18.704C3.86296 18.181 4.34796 17.487 5.04296 16.793C6.44396 15.39 8.68796 14 12 14C15.312 14 17.556 15.391 18.957 16.793C19.5307 17.367 20.0324 18.0087 20.451 18.704C20.614 18.9741 20.7609 19.2536 20.891 19.541C20.9016 19.565 20.91 19.5843 20.916 19.599L20.924 19.617L20.927 19.624L20.928 19.628C21.0202 19.8728 21.0129 20.145 20.9075 20.3845C20.8022 20.6239 20.6071 20.8126 20.3643 20.9099C20.1215 21.0073 19.8502 21.0056 19.6086 20.9052C19.367 20.8048 19.1743 20.6138 19.072 20.373V20.374L19.073 20.375L19.072 20.373C19.0507 20.3221 19.0284 20.272 19.003 20.223C18.9216 20.0556 18.8325 19.8921 18.736 19.733C18.4016 19.1779 18.001 18.6655 17.543 18.207C16.444 17.11 14.688 16 12 16C9.31196 16 7.55596 17.109 6.45696 18.207C5.99896 18.6655 5.59835 19.1779 5.26396 19.733C5.1392 19.9394 5.027 20.1521 4.92796 20.372Z" fill="white" style="fill:white;fill-opacity:1;"/>
</g>
</svg>
